<svg xmlns="http://www.w3.org/2000/svg" xmlns:xlink="http://www.w3.org/1999/xlink" viewBox="0 0 1059 636.29"><defs><style>.cls-1{isolation:isolate;}.cls-2{fill:url(#linear-gradient);}.cls-3{fill:url(#linear-gradient-2);}.cls-4{fill:url(#linear-gradient-3);}.cls-5{opacity:0.54;fill:url(#linear-gradient-4);}.cls-25,.cls-5{mix-blend-mode:multiply;}.cls-6{fill:#415f6b;}.cls-7{fill:url(#linear-gradient-5);}.cls-8{fill:#fff;}.cls-9{fill:url(#linear-gradient-6);}.cls-10{fill:url(#linear-gradient-7);}.cls-11{fill:url(#linear-gradient-8);}.cls-12{fill:url(#linear-gradient-9);}.cls-13{fill:url(#linear-gradient-10);}.cls-14{fill:url(#linear-gradient-11);}.cls-15{fill:url(#linear-gradient-12);}.cls-16{fill:url(#linear-gradient-13);}.cls-17{fill:url(#linear-gradient-14);}.cls-18{fill:url(#linear-gradient-15);}.cls-19{fill:url(#linear-gradient-16);}.cls-20{fill:url(#linear-gradient-17);}.cls-21{fill:url(#linear-gradient-18);}.cls-22{fill:#0c002f;}.cls-23{fill:#f1b3ad;}.cls-24{fill:#3a3a7f;}.cls-25{fill:url(#linear-gradient-19);}.cls-26{fill:url(#linear-gradient-20);}.cls-27{fill:url(#linear-gradient-21);}.cls-28{fill:url(#linear-gradient-22);}.cls-29{fill:url(#linear-gradient-23);}.cls-30{fill:url(#linear-gradient-24);}.cls-31{fill:#3b3b7f;}.cls-32{fill:#be35c3;}.cls-33{fill:#00ffc7;}.cls-34{fill:#fcfdfd;}.cls-35{fill:#fbfbfc;}.cls-36{fill:#e4e4e4;}.cls-37{fill:url(#linear-gradient-25);}.cls-38{fill:#102383;}.cls-39{fill:url(#linear-gradient-26);}.cls-40{fill:url(#linear-gradient-27);}.cls-41{fill:url(#linear-gradient-28);}.cls-42{fill:url(#linear-gradient-29);}.cls-43{fill:url(#linear-gradient-30);}.cls-44{fill:#0a205c;}.cls-45{fill:url(#linear-gradient-31);}.cls-46{fill:url(#linear-gradient-32);}.cls-47{fill:#2a2d61;}</style><linearGradient id="linear-gradient" x1="478.02" y1="-10.96" x2="434.61" y2="675.7" gradientTransform="matrix(1.12, 0.02, 0.02, 1, 41.89, 6.17)" gradientUnits="userSpaceOnUse"><stop offset="0.21" stop-color="#5527f9"/><stop offset="0.3" stop-color="#6237f9"/><stop offset="0.47" stop-color="#8462fb"/><stop offset="0.72" stop-color="#baa8fd"/><stop offset="1" stop-color="#fff"/></linearGradient><linearGradient id="linear-gradient-2" x1="553.26" y1="634.64" x2="553.26" y2="19.15" gradientUnits="userSpaceOnUse"><stop offset="0" stop-color="#00b8ff"/><stop offset="0.77" stop-color="#7fc5ff"/><stop offset="1" stop-color="#a6c9ff"/></linearGradient><linearGradient id="linear-gradient-3" x1="557.25" y1="378.18" x2="557.25" y2="632.54" xlink:href="#linear-gradient-2"/><linearGradient id="linear-gradient-4" x1="566.06" y1="620.58" x2="566.06" y2="583.77" xlink:href="#linear-gradient-2"/><linearGradient id="linear-gradient-5" x1="569.39" y1="164.29" x2="569.39" y2="47.1" gradientUnits="userSpaceOnUse"><stop offset="0" stop-color="#e99b00"/><stop offset="0.41" stop-color="#ffe980"/></linearGradient><linearGradient id="linear-gradient-6" x1="534.75" y1="183.96" x2="534.75" y2="131.54" gradientUnits="userSpaceOnUse"><stop offset="0.21" stop-color="#5527f9"/><stop offset="0.37" stop-color="#5b37fa"/><stop offset="0.7" stop-color="#6962fc"/><stop offset="1" stop-color="#788fff"/></linearGradient><linearGradient id="linear-gradient-7" x1="534.75" y1="135.22" x2="534.75" y2="192.41" gradientUnits="userSpaceOnUse"><stop offset="0" stop-color="#14088a"/><stop offset="0.1" stop-color="#130883"/><stop offset="0.26" stop-color="#0f086f"/><stop offset="0.44" stop-color="#08094f"/><stop offset="0.54" stop-color="#04093a"/></linearGradient><linearGradient id="linear-gradient-8" x1="534.75" y1="135.22" x2="534.75" y2="192.41" xlink:href="#linear-gradient-7"/><linearGradient id="linear-gradient-9" x1="534.75" y1="135.22" x2="534.75" y2="192.41" xlink:href="#linear-gradient-7"/><linearGradient id="linear-gradient-10" x1="534.75" y1="135.22" x2="534.75" y2="192.41" xlink:href="#linear-gradient-7"/><linearGradient id="linear-gradient-11" x1="536.28" y1="229.94" x2="536.28" y2="127.58" gradientUnits="userSpaceOnUse"><stop offset="0" stop-color="#f8fafb"/><stop offset="0.37" stop-color="#ebf0fc"/><stop offset="1" stop-color="#cbdaff"/></linearGradient><linearGradient id="linear-gradient-12" x1="-4569.04" y1="650.26" x2="-4569.04" y2="129.56" gradientTransform="translate(5139.97 -9.08)" xlink:href="#linear-gradient-11"/><linearGradient id="linear-gradient-13" x1="536.28" y1="573.7" x2="536.28" y2="178.06" xlink:href="#linear-gradient-11"/><linearGradient id="linear-gradient-14" x1="536.28" y1="176.89" x2="536.28" y2="213.61" gradientUnits="userSpaceOnUse"><stop offset="0" stop-color="#f8fafb"/><stop offset="0.1" stop-color="#f0f4fc"/><stop offset="0.4" stop-color="#dbe6fe"/><stop offset="0.7" stop-color="#cfddff"/><stop offset="1" stop-color="#cbdaff"/></linearGradient><linearGradient id="linear-gradient-15" x1="447.33" y1="333.69" x2="354.74" y2="333.69" xlink:href="#linear-gradient-11"/><linearGradient id="linear-gradient-16" x1="-4583.14" y1="352.84" x2="-4675.73" y2="352.84" gradientTransform="matrix(-1, 0, 0, 1, -3957.9, -19.15)" xlink:href="#linear-gradient-11"/><linearGradient id="linear-gradient-17" x1="467.19" y1="647.27" x2="467.19" y2="513.6" gradientUnits="userSpaceOnUse"><stop offset="0.26" stop-color="#f8fafb"/><stop offset="0.53" stop-color="#ebf0fc"/><stop offset="1" stop-color="#cbdaff"/></linearGradient><linearGradient id="linear-gradient-18" x1="408.85" y1="314.17" x2="403.75" y2="315.06" gradientUnits="userSpaceOnUse"><stop offset="0" stop-color="#f3f2f0"/><stop offset="1" stop-color="#ffacbb"/></linearGradient><linearGradient id="linear-gradient-19" x1="409.59" y1="443.91" x2="416.05" y2="460.95" gradientTransform="translate(49.39 -40.81) rotate(6.05)" xlink:href="#linear-gradient-6"/><linearGradient id="linear-gradient-20" x1="365.59" y1="457.6" x2="380.67" y2="415.72" gradientUnits="userSpaceOnUse"><stop offset="0" stop-color="#f8fafb"/><stop offset="0.1" stop-color="#eef3fc"/><stop offset="0.38" stop-color="#dbe5fe"/><stop offset="0.66" stop-color="#cfddff"/><stop offset="0.94" stop-color="#cbdaff"/></linearGradient><linearGradient id="linear-gradient-21" x1="411.4" y1="440.86" x2="417.86" y2="457.91" gradientTransform="translate(49.08 -41.02) rotate(6.05)" xlink:href="#linear-gradient-20"/><linearGradient id="linear-gradient-22" x1="416.11" y1="445.97" x2="428.64" y2="445.52" xlink:href="#linear-gradient-18"/><linearGradient id="linear-gradient-23" x1="531.53" y1="215.98" x2="534.61" y2="215.98" xlink:href="#linear-gradient-11"/><linearGradient id="linear-gradient-24" x1="560.36" y1="592.3" x2="560.36" y2="201.07" xlink:href="#linear-gradient-11"/><linearGradient id="linear-gradient-25" x1="602.56" y1="647.27" x2="602.56" y2="513.6" xlink:href="#linear-gradient-17"/><linearGradient id="linear-gradient-26" x1="1457.16" y1="988.96" x2="1457.16" y2="975.39" gradientTransform="matrix(-0.97, 0.26, 0.26, 0.97, 1873.35, -919.23)" gradientUnits="userSpaceOnUse"><stop offset="0" stop-color="#e7e4ff"/><stop offset="0.35" stop-color="#c7cffa"/><stop offset="0.77" stop-color="#a8bbf4"/><stop offset="1" stop-color="#9cb3f2"/></linearGradient><linearGradient id="linear-gradient-27" x1="1461.12" y1="986.28" x2="1461.12" y2="974.54" gradientTransform="matrix(-0.97, 0.26, 0.26, 0.97, 1838.71, -938.37)" gradientUnits="userSpaceOnUse"><stop offset="0" stop-color="#f8fafb"/><stop offset="1" stop-color="#cbdaff"/></linearGradient><linearGradient id="linear-gradient-28" x1="-239.52" y1="195.64" x2="-239.84" y2="165.1" gradientTransform="translate(1013.03 288.58) rotate(22.42)" gradientUnits="userSpaceOnUse"><stop offset="0.3" stop-color="#241f20"/><stop offset="0.59" stop-color="#0d243f"/><stop offset="0.79" stop-color="#002650"/></linearGradient><linearGradient id="linear-gradient-29" x1="1442.91" y1="990.23" x2="1442.91" y2="968.72" gradientTransform="matrix(-0.97, 0.26, 0.26, 0.97, 1838.71, -938.37)" gradientUnits="userSpaceOnUse"><stop offset="0" stop-color="#f8fafb"/><stop offset="0.3" stop-color="#eff4fc"/><stop offset="0.79" stop-color="#d7e3fe"/><stop offset="1" stop-color="#cbdaff"/></linearGradient><linearGradient id="linear-gradient-30" x1="1452.64" y1="988.96" x2="1452.64" y2="983.76" gradientTransform="matrix(-0.97, 0.26, 0.26, 0.97, 1838.71, -938.37)" xlink:href="#linear-gradient-26"/><linearGradient id="linear-gradient-31" x1="802.22" y1="3269.17" x2="800.09" y2="3252.36" gradientTransform="matrix(1, 0, 0, 1, -60.04, -2767.94)" xlink:href="#linear-gradient-29"/><linearGradient id="linear-gradient-32" x1="1184.27" y1="1077.51" x2="1182.29" y2="1061.89" gradientTransform="translate(-501.21 -582.37)" xlink:href="#linear-gradient-29"/></defs><g class="cls-1"><g id="Layer_1" data-name="Layer 1"><path class="cls-2" d="M78.14,165.88C-34.56,273.75,97.88,370.26,180.66,416.3s125.39,192.17,360.59,221c252.26,30.87,344.31-46,307.86-148.68S940.05,325.3,1056.46,242.4,1003.77-21.24,719,77.69C486.57,158.45,231.36,19.22,78.14,165.88Z" transform="translate(-34.65 -19.15)"/><path class="cls-3" d="M545.66,28.65c-180,29.34-151.46,142-205.23,195.17s-255.3,95.83-263.16,234C68.83,606,191,649,331.62,615.3s311.51-51,445.58,5.19,367-63.21,186.55-213.69C816.44,283.94,968.39-40.25,545.66,28.65Z" transform="translate(-34.65 -19.15)"/><path class="cls-4" d="M86,531.64c35.72,93.46,131.85,111.84,245.88,84.49,140.64-33.72,311.51-51,445.59,5.2,93.52,39.2,235.09-7.05,251-89.69Z" transform="translate(-34.65 -19.15)"/><path class="cls-5" d="M571.2,576.59c-235.76,0-426.88,9.19-426.88,20.52,0,7.23,77.74,13.58,195.21,17.24,134-31.3,293.8-47,423,1.11,95.21-2.3,170-6.26,208.05-11.09a164.68,164.68,0,0,0,17.21-11.75C945.21,583.45,774.87,576.59,571.2,576.59Z" transform="translate(-34.65 -19.15)"/><path class="cls-6" d="M569.39,177.7h10.74l-7.57,8.21a4.32,4.32,0,0,1-6.33,0l-7.57-8.21Z" transform="translate(-34.65 -19.15)"/><path class="cls-7" d="M532.13,94.72A37.27,37.27,0,1,1,595,121.79a40.41,40.41,0,0,0-12.56,29.38v1.26h-26.1v-1.26a41.49,41.49,0,0,0-12.89-29.71A37.14,37.14,0,0,1,532.13,94.72Z" transform="translate(-34.65 -19.15)"/><path class="cls-8" d="M578.47,159.81H560.32V108.49c-3.07-.79-4.62-2-4.62-3.64a10.84,10.84,0,0,1,2.47-6.56,2.26,2.26,0,0,1,4.06,1.36V107a44.55,44.55,0,0,0,14.33,0V99.65a2.25,2.25,0,0,1,4.05-1.36,10.86,10.86,0,0,1,2.48,6.56c0,1.87-2.07,3-4.62,3.64Zm-16.24-1.91h14.33v-49a45.05,45.05,0,0,1-7.17.57,43,43,0,0,1-7.16-.56Zm16.59-58.6a.35.35,0,0,0-.12,0,.31.31,0,0,0-.23.32v6.87c1.78-.52,2.71-1.15,2.71-1.67a9.17,9.17,0,0,0-2.08-5.4A.36.36,0,0,0,578.82,99.3ZM560,99.3a.38.38,0,0,0-.29.15,9.23,9.23,0,0,0-2.08,5.4c0,.52.94,1.15,2.72,1.67V99.65a.31.31,0,0,0-.23-.32Z" transform="translate(-34.65 -19.15)"/><rect class="cls-9" x="519.21" y="133.28" width="31.07" height="28.52" rx="2.4"/><rect class="cls-10" x="517.36" y="136.76" width="34.78" height="3.85" rx="0.72"/><rect class="cls-11" x="517.36" y="143.22" width="34.78" height="3.85" rx="0.72"/><rect class="cls-12" x="517.36" y="149.68" width="34.78" height="3.85" rx="0.72"/><rect class="cls-13" x="517.36" y="156.14" width="34.78" height="3.85" rx="0.72"/><rect class="cls-14" x="488.54" y="143.01" width="95.49" height="60.48"/><rect class="cls-15" x="417.09" y="199" width="307.68" height="307.68" transform="translate(1107.22 686.53) rotate(180)"/><rect class="cls-16" x="394.28" y="191.68" width="284.02" height="284.02"/><rect class="cls-17" x="394.28" y="191.68" width="284.02" height="16.99"/><polygon class="cls-18" points="409.17 475.7 394.28 475.7 394.28 191.69 409.17 208.68 409.17 475.7"/><polygon class="cls-19" points="663.4 475.7 678.29 475.7 678.29 191.69 663.4 208.68 663.4 475.7"/><path class="cls-20" d="M456.21,487.53h22a0,0,0,0,1,0,0V624.58a4.08,4.08,0,0,1-4.08,4.08H459.79a3.58,3.58,0,0,1-3.58-3.58V487.53A0,0,0,0,1,456.21,487.53Z"/><path class="cls-21" d="M402.21,313.42a3.59,3.59,0,0,1,1.88,1c.6.75-1.5,2.76-1.5,2.76Z" transform="translate(-34.65 -19.15)"/><path class="cls-22" d="M430.89,540.28s3.86-.18,3.6,10.07,2.31,92.4,2.31,92.4H423.15s-21.76-58.09-10.45-93.52C412.7,549.23,417,533.48,430.89,540.28Z" transform="translate(-34.65 -19.15)"/><path class="cls-22" d="M403.36,472.7a14.88,14.88,0,0,1,2.83-1.55c4.23-1.74,8.83-.07,13.39.27,12.23.89,15.41,27.81,15.74,42.56.35,15.83,3.28,28.61-2.57,43.32-1.72,4.34-4.66,8.9-9.27,9.65-3.56.57-7.14-1.41-9.43-4.19s-3.51-6.26-4.62-9.69c-4.71-14.54-8.16-29.44-11.76-44.29-1.66-6.84-3.37-13.85-2.58-20.85C395.75,482,398.57,476,403.36,472.7Z" transform="translate(-34.65 -19.15)"/><path class="cls-22" d="M408.92,542.93s3.85.24,2.51,10.4-11.32,93-11.32,93l-3.88.89a18.32,18.32,0,0,1-5.57.4l-4.36-.35s-11.42-63.31,3.58-97.34C389.88,549.91,395.79,534.7,408.92,542.93Z" transform="translate(-34.65 -19.15)"/><path class="cls-22" d="M387.21,473.33c5.67-3.41,12.44-2.7,17.88.82,7.29,4.7,11.65,12.83,12.47,21.42,1.11,11.55.27,24.32-1.21,35.81a117.23,117.23,0,0,1-4,18.78c-1.57,5.16-2.45,12.05-7.27,15.49-3.53,2.53-9.7,2.74-13.17-.13s-4.72-8.19-5.52-12.56c-.91-5-2-10-2.92-15-1.58-8.54-2.8-17.15-4.43-25.69-1.57-8.21-2.72-17.08-1-25.36A20.71,20.71,0,0,1,387.21,473.33Z" transform="translate(-34.65 -19.15)"/><path class="cls-23" d="M430.77,448.83c-1.94-2.12-1-6.16-.13-8.65,2-5.86,32.82-27.31,32.82-27.31l2.45-4.81,1.34-5.32.86-3.38a8.71,8.71,0,0,0-.13-3,6.93,6.93,0,0,1-.39-1.45.91.91,0,0,1,.56-.89,1.1,1.1,0,0,1,.79.12,3.08,3.08,0,0,1,1.69,2.51,7.92,7.92,0,0,1,0,1.19,3,3,0,0,0,.13,1.19,1.27,1.27,0,0,0,.82.81c.53.14.8-.17,1-.57a9.17,9.17,0,0,1,.94-1.39l.6-.83c.17-.26.36-.52.57-.79l.81-1.11c2.3-3.46,1.51-5.55,3.55-7.32,1.2-1,1.07,1.06,2.79,1,1-.06.64,5.35,1.63,4.35s2.51,1.9,2.3,6.59a14.51,14.51,0,0,1-3.29,8.57,1.35,1.35,0,0,1-.33.46S470,419.3,470,419.3c-1.71,1.35-8.59,10-9.86,11.67C458.75,432.85,439.12,458,430.77,448.83Z" transform="translate(-34.65 -19.15)"/><path class="cls-24" d="M428.92,459.48s-9.27-8.19-3.36-15.57,18.05-16.34,38.12-35.64L474.24,420S439.78,458.71,428.92,459.48Z" transform="translate(-34.65 -19.15)"/><path class="cls-24" d="M375.79,488.67c1.11-9.39,3.2-18.1,2-27.66s-2.33-19.32-3.71-28.94c-.59-4.09-1.66-8.29-2-12.38a17.88,17.88,0,0,1,4.43-13.94c2.91-3.4,44-7.45,47.19-5.79,4.57,2,7.65,7,7.81,12.64.34,11.53.61,23,.7,34.58,0,6-.65,11.87.32,17.87,1.19,7.35,7.11,25.06,7.7,36.61a2.15,2.15,0,0,1-1.94,2.27,27.64,27.64,0,0,0-4.63.85c-8,2.29-18.75,1.55-26.93,3-7.55,1.34-21.26,5-30.38,4.16a1.62,1.62,0,0,1-1.46-1.67C375,505.89,375.27,493.12,375.79,488.67Z" transform="translate(-34.65 -19.15)"/><rect class="cls-25" x="393.1" y="419.72" width="35.06" height="53.83" transform="translate(-79.46 26.64) rotate(-6.05)"/><polygon class="cls-26" points="397.1 450.57 362.24 454.27 356.56 400.74 357.51 399.53 398.05 449.36 397.1 450.57"/><rect class="cls-27" x="394.9" y="416.68" width="35.06" height="53.83" transform="translate(-79.13 26.82) rotate(-6.05)"/><path class="cls-28" d="M415.52,449l14-6.11a1.34,1.34,0,0,0,.43-.32" transform="translate(-34.65 -19.15)"/><path class="cls-23" d="M434.18,438.44c.69-1.24-.34-1.72.38-3.41s-.35-2.78-.62-4.95-1.86-1-1.65-3.23a1.72,1.72,0,0,0-.72-1.63,12.23,12.23,0,0,1-2.57,2.85l-1.05.78a9.14,9.14,0,0,0-.75.56l-.78.58a8,8,0,0,0-1.25,1c-.29.32-.62.52-1.06.24a1.19,1.19,0,0,1-.52-1,2.73,2.73,0,0,1,.22-1.12,8,8,0,0,0,.37-1.07,3,3,0,0,0-.83-2.76,1.07,1.07,0,0,0-.68-.35.86.86,0,0,0-.76.65,6.3,6.3,0,0,0-.06,1.44,8.31,8.31,0,0,1-.73,2.73l-1.75,2.84-2.73,4.45-3.6,3.68s-4.34,1.36-10.07,3.32v13.49c1-.64,1.65-1.11,1.89-1.29,1.63-1.18,10.35-7.06,12.29-7.81l14-6.1a1.34,1.34,0,0,0,.43-.32c.66-.51,1.32-1,2-1.61A8.24,8.24,0,0,1,434.18,438.44Z" transform="translate(-34.65 -19.15)"/><path class="cls-23" d="M410.88,384.59a27.7,27.7,0,0,1-2.07,7c-1.45,3.16-3.56,5.74-6.38,6.81a8.45,8.45,0,0,1-2.05.52,9.53,9.53,0,0,1-3.09-.22c-6.81-1.63-10.75-10.59-10.75-10.59s-1.83,1.36-3.94-1.07-2.44-6.91-.06-6.69c.88,1.07,1.85,1.75,2.17,2.9.61,2.11,2.58,3.11,2.82,0s-1.67-8.84,2.12-12.78,6.91-4.26,11.63-3.58a21.46,21.46,0,0,0,6.55,0c2,2.05,2.53,5.3,3.18,9.54A26.68,26.68,0,0,1,410.88,384.59Z" transform="translate(-34.65 -19.15)"/><path class="cls-23" d="M402.42,398.38a8.12,8.12,0,0,1-2.05.52,8.79,8.79,0,0,1-3.09-.21,32.94,32.94,0,0,0,.88,4.59c.58,1.93,1.44,3.36,2.83,3.07,1.08-.22,1.49-1.76,1.6-3.59A28.61,28.61,0,0,0,402.42,398.38Z" transform="translate(-34.65 -19.15)"/><path class="cls-22" d="M400.22,646.26s.08-.34.21-.94c3.88,1.18,12.55,3.88,12.07,6.25-.53,2.65-5.27,3.44-11.23,2.38L385,651.05a13.76,13.76,0,0,1,1-4.79h0C389.79,648.61,400.22,646.26,400.22,646.26Z" transform="translate(-34.65 -19.15)"/><path class="cls-22" d="M437,641.72s.08-.35.2-1c3.89,1.19,12.56,3.89,12.07,6.25-.52,2.66-5.27,3.45-11.22,2.38l-16.23-2.89a13.76,13.76,0,0,1,1-4.79h0C426.53,644.06,437,641.72,437,641.72Z" transform="translate(-34.65 -19.15)"/><path class="cls-22" d="M397.77,357.47c-4.7.08-18.23,2.46-16.69,20.38a6.93,6.93,0,0,0,1.63,4.12c.87,1,1.82,1.71,2.15,2.83.59,2.09,2.53,3.06,2.75,0s-1.64-8.66,2.09-12.55,6.8-4.18,11.43-3.51a31.35,31.35,0,0,0,7.87-.29C411.43,368,408,357.29,397.77,357.47Z" transform="translate(-34.65 -19.15)"/><rect class="cls-29" x="531.53" y="179.85" width="3.07" height="72.26"/><rect class="cls-8" x="533.21" y="179.85" width="3.07" height="72.26"/><path class="cls-30" d="M564.22,293.12c-2.57,1.48-5.13,3-7.72,4.44C559.09,296.12,561.65,294.6,564.22,293.12Z" transform="translate(-34.65 -19.15)"/><path class="cls-24" d="M616.25,361.47l0,0h0Z" transform="translate(-34.65 -19.15)"/><path class="cls-24" d="M689.48,490.1a18.28,18.28,0,0,0-2.24-6.11,49,49,0,0,0-3.9-5.73c-2.39-3.08-5.14-5.85-7.78-8.72-.18-.13-.51-.33-.39-.49.23-.32.5-.08.71.15,4.07,1.72,7.43,4.55,10.89,7.18a.94.94,0,0,0,.15-1.08c-2.81-7-7.14-12.58-14.26-15.61a64.05,64.05,0,0,0-10.49-3.18,34.45,34.45,0,0,1-11-4.48,52.3,52.3,0,0,1-6.34-4.84,16,16,0,0,0-6.25-3.41c-2.22-.66-4.46-1.3-6.7-1.94-8.29-2.39-14.17-7.64-18.06-15.23-1.79-3.49-3.37-7-3.68-11.07-.26-3.32-1.8-6.37-3.27-9.36a11.05,11.05,0,0,1-1.4-6.33,4.27,4.27,0,0,1,3.34-4c1.09-.28,2.18-.6,3.27-.88a36.15,36.15,0,0,0,19.7-12.83,92.92,92.92,0,0,0,10.45-17.41,9.5,9.5,0,0,0,.65-1.88,13.9,13.9,0,0,0,.51-5.13c-.26-2.1-1.4-2.87-3.47-2.4l-.77.19L618,361.26a2.66,2.66,0,0,1-1.69.18l0,0h0c.07.15,0,.31-.11.24-.32-.23,0-.21.11-.24v0h0c1-1.53,2.56-2.43,3.93-3.52a165,165,0,0,0,22.4-21,125.91,125.91,0,0,0,21.85-35.08c3.6-8.8,3-17.4,0-26.1l-.06-.19c-.2-.45-.46-.81-1-.78s-.79.4-.85.92c-.09.72-.22,1.45-.28,2.17a62.31,62.31,0,0,1-8.65,26.32,3.52,3.52,0,0,1-1.26,1.61c-.21-1.18-.38-2.2-.56-3.23a72.56,72.56,0,0,0-16.31-35c-.3-.35-.61-.7-.94-1a1,1,0,0,0-1.43-.22,1.14,1.14,0,0,0-.45,1.41,15.72,15.72,0,0,0,.59,1.48c1.3,3.06,2.53,6.16,3.92,9.18,5.28,11.47,6.29,23.4,3.84,35.69a22.53,22.53,0,0,1-6.79,12.59c-4.34,4-8.58,8.18-13.05,12.06-5.2,4.5-10.46,8.9-17,11.29-.47.17-.9.57-1.57.24a11.45,11.45,0,0,1,.11-1.15,35,35,0,0,1,2.94-9.08c.81-1.6,1.62-3.21,2.41-4.82a14.5,14.5,0,0,0,1.1-9.91c-.52-2.26-.93-4.56-1.35-6.84-.37-2-.7-4.07-1-6.1-.11-.7-.26-1.39-1.08-1.45s-1.11.62-1.35,1.25-.35,1-.51,1.51a26.8,26.8,0,0,0-1,10.07,13.34,13.34,0,0,1-1.59,7.49,97.15,97.15,0,0,1-5.23,8.72c-1.83,2.7-3.62,5.42-5.22,8.27a59.24,59.24,0,0,0-5.32,13.95,1.93,1.93,0,0,1-2,1.73c-2.85.14-5.7.58-8.55.7a88.44,88.44,0,0,1-10.17.24c-4-.27-8-.64-11.94-.94-2.12-.16-2.2-.12-2.7-2.15a62.51,62.51,0,0,0-10-21.16,78.14,78.14,0,0,1-5.85-9.75,12.89,12.89,0,0,1-1.48-6.72c.1-1.86.07-3.73,0-5.59a20.45,20.45,0,0,0-1.54-6.57c-.23-.61-.57-1.11-1.28-1s-1,.63-1.08,1.26c0,.19,0,.4-.07.59a126.47,126.47,0,0,1-2.3,12.55,14,14,0,0,0,.89,9.35c.52,1.15,1.07,2.29,1.68,3.4a37.59,37.59,0,0,1,4,11.24c.07.41.32.87-.11,1.25a47.06,47.06,0,0,1-13.18-7.42c-6.46-5.26-12.5-11-18.54-16.7a21.89,21.89,0,0,1-6.2-10.73,65.07,65.07,0,0,1-1.63-17.43,44.8,44.8,0,0,1,2.79-13.83c1.74-5,3.95-9.88,6-14.78.28-.67.56-1.35.82-2a1.06,1.06,0,0,0-.55-1.34,1,1,0,0,0-1.27.14,11.1,11.1,0,0,0-.81.88A72.38,72.38,0,0,0,483.88,302a11.3,11.3,0,0,1-.87,3.83,62.15,62.15,0,0,1-5.75-11.28,65,65,0,0,1-4.1-18c-.06-.7.11-1.61-.89-1.76s-1.12.78-1.3,1.45a79.31,79.31,0,0,0-1.92,7.73,27.91,27.91,0,0,0-.47,7.74,46.55,46.55,0,0,0,4,13.52c7.23,16.73,18.25,30.7,31.43,43.08,4.47,4.2,9.36,7.91,14.06,11.84.4.34,1.07.54,1,1.28a3.32,3.32,0,0,1-1.81-.26c-7.12-1.93-14.25-3.87-21.38-5.77-2.39-.63-3.54.25-3.66,2.72a13.79,13.79,0,0,0,1.22,6.8,90.24,90.24,0,0,0,10,16.77,35.47,35.47,0,0,0,19.14,13c1.42.38,2.82.79,4.23,1.2,2.6.76,3.69,2.31,3.59,5a11.22,11.22,0,0,1-1.08,4,22.44,22.44,0,0,0-2.12,7.65c-.13,2.79-.51,5.56-.87,8.33a8.68,8.68,0,0,1-.61,2.3,49,49,0,0,1-3.46,6.52,27.57,27.57,0,0,1-15.14,11.75c-2.09.67-4.19,1.31-6.31,1.87a19.83,19.83,0,0,0-8.39,4.39,36.25,36.25,0,0,1-17.55,9,40.16,40.16,0,0,0-4.05,1.06c-3.32,1-6.63,2-9.54,4a28.63,28.63,0,0,0-10.45,13.77c-.14.36-.42.76-.18,1.25,9.2-6.93,9.63-7.2,11.44-7.3,0,.6-.55.88-.9,1.26-1.34,1.48-2.75,2.9-4,4.43-4.07,4.79-7.78,9.79-9.16,16.11a3.33,3.33,0,0,0,1.26,2.18c.64.67,1.34,1.27,2,1.93H684.82c1.06-1.08,2.16-2.1,3.2-3.21A4.19,4.19,0,0,0,689.48,490.1ZM519.71,361.7l-.13-.06.14,0ZM462.59,469.25l-.14-.07.15-.2.13.14ZM538.49,379c2.63,2.51,5.87,2.54,9.18,2.25,2.85-.24,5.64-.87,8.51-1.08a153.53,153.53,0,0,1,24.73.13c2.44.21,4.87.66,7.31,1a14.59,14.59,0,0,0,6.12-.59,9.12,9.12,0,0,0,2.9-1.88c.76.49.41,1,.25,1.5-1,3-2.56,5.67-6,6.72a17.54,17.54,0,0,0-6.39,3.59c-2.08,1.82-2.87,4.26-3.59,6.76-.23.77.15,1.16,1,1a4.43,4.43,0,0,0,1.51-.47c2.59-1.49,5.3-.86,8-.46.86.14,1.11.84.9,1.7-.32,1.29-.56,2.6-.91,3.88q-3.54,13.31-7.11,26.58a14,14,0,0,0-.63,3.92c.08,3.52-1.77,6.18-4,8.61a4.29,4.29,0,0,1-2.46,1.23,11.09,11.09,0,0,1-5.51-.49c-1.64-.55-2.34-2-3.25-3.35a10.27,10.27,0,0,1,2.76-1,11.84,11.84,0,0,0,4.32-2.43,4.47,4.47,0,0,0,1.17-5.26,4.06,4.06,0,0,0-4.41-2.73c-3.4.12-6.79.1-10.18,0a4,4,0,0,0-4.41,3,4.14,4.14,0,0,0,1.39,5,13.49,13.49,0,0,0,4.35,2.38,10.09,10.09,0,0,1,2.5.95,5.86,5.86,0,0,1-5,3.88,12.16,12.16,0,0,1-4.17.05,4.05,4.05,0,0,1-2.47-1.56c-1.94-2.73-3.75-5.49-3.47-9.11a12,12,0,0,0-.83-3.88q-3.37-12.62-6.76-25.23c-.4-1.47-.75-3-1-4.46-.21-1.21.08-1.62,1.26-1.79,2.63-.36,5.29-.92,7.77.66a2.58,2.58,0,0,0,.76.22c1.42.32,1.68,0,1.38-1.39-.93-4.33-3.64-7.14-7.54-8.95-1.26-.59-2.6-1-3.85-1.63-3-1.46-3.82-4.32-4.75-7C538.13,378.91,538.34,378.86,538.49,379Zm35.26,73.88a7.27,7.27,0,0,1-11.13.54c-.81-.92-1.54-2-1-3.24a3.2,3.2,0,0,1,2.71-1.75,21.42,21.42,0,0,1,3.9-.23,14.29,14.29,0,0,1,4,.35C574.62,449.18,575.2,450.88,573.75,452.88Zm25-21.45c-.31,6.57-.62,13-.94,19.73-1.06-1.19-1.29-2.61-2.08-3.74-.69.18-.74.86-1,1.35q-2.31,5.19-4.54,10.42a64.76,64.76,0,0,1-11,17.53c-3.37,3.86-6.92,7.54-10.45,11.2-.71-.11-.94-.64-1.28-1-3.08-3.33-6.47-6.33-9.71-9.5a82.61,82.61,0,0,1-8-8.66c-4.65-6.05-7.35-12.77-7.21-20.49a2.88,2.88,0,0,0,0-.59c0-.05-.1-.08-.36-.27L538,451.33c-.36-6.9-.7-13.32-1-19.83-1.58,0-2.9,1-4.35,1.09-.42-.26-.32-.61-.29-.91a77.14,77.14,0,0,0,0-10,39.39,39.39,0,0,1,1.37-12.64,7.75,7.75,0,0,1,1.94-3.46c.73.19.71.9.92,1.39,2.31,5.41,3.47,11.16,4.89,16.83,1.51,6.06,3,12.14,4.41,18.22a16.81,16.81,0,0,0,3.06,6.44c2.81,3.63,5.72,7.18,8.86,10.54a18.06,18.06,0,0,0,4.51,3.6,10.85,10.85,0,0,0,11.56-.27,17.21,17.21,0,0,0,4.45-4,81.4,81.4,0,0,1,7.18-8c2.67-2.51,3.92-5.84,4.63-9.34a31.63,31.63,0,0,0,.85-7.32,6.3,6.3,0,0,1,.65-2.69,81.39,81.39,0,0,0,5.12-14.45,26.61,26.61,0,0,0,.75-4.92c.08-2.44,1.34-4.35,2.65-6.48a14,14,0,0,1,2,4.71,25.46,25.46,0,0,1,.92,5.9c.19,5.52-.29,11,.1,16.77Z" transform="translate(-34.65 -19.15)"/><path class="cls-31" d="M564.22,293.12c-2.57,1.48-5.13,3-7.72,4.44s-5.45,3.07-8.17,4.61c0,.48.46.62.8.81,6.15,3.55,12.33,7.08,18.46,10.68a2,2,0,0,0,2.35-.09c5.86-3.41,11.74-6.78,17.6-10.18.5-.29,1.11-.47,1.43-1l-20.34-11.69C567.13,291.44,565.68,292.29,564.22,293.12Z" transform="translate(-34.65 -19.15)"/><path class="cls-32" d="M588,278c-5.83-3.34-11.63-6.71-17.45-10.06a3.4,3.4,0,0,0-1.81-.75q0,10.55,0,21.09c0,.8,0,1.6-.07,2.39h0L589,302.37a4.29,4.29,0,0,0,.15-.78c0-7.24,0-14.49,0-21.74A1.89,1.89,0,0,0,588,278Z" transform="translate(-34.65 -19.15)"/><path class="cls-32" d="M568.63,290.68h0L589,302.37l-20.34-11.69Z" transform="translate(-34.65 -19.15)"/><path class="cls-33" d="M564.22,293.12c1.46-.83,2.91-1.68,4.41-2.44,0-.79.07-1.59.07-2.39q0-10.55,0-21.09a1.64,1.64,0,0,0-1.11.35c-6.11,3.52-12.21,7.06-18.33,10.54a1.9,1.9,0,0,0-1,1.94c0,3.52,0,7.05,0,10.57,0,3.86.06,7.71.09,11.57,2.72-1.54,5.44-3.09,8.17-4.61S561.65,294.6,564.22,293.12Z" transform="translate(-34.65 -19.15)"/><path class="cls-33" d="M568.63,290.68h0c-1.5.76-3,1.61-4.41,2.44C565.68,292.29,567.13,291.44,568.63,290.68Z" transform="translate(-34.65 -19.15)"/><path class="cls-24" d="M687.06,476.66s.07.08.1.13l.12-.13-.11-.13S687.06,476.61,687.06,476.66Z" transform="translate(-34.65 -19.15)"/><path class="cls-34" d="M542.5,386.3c1.25.6,2.59,1,3.85,1.63,3.9,1.81,6.61,4.62,7.54,8.95.3,1.41,0,1.71-1.38,1.39a2.58,2.58,0,0,1-.76-.22c-2.48-1.58-5.14-1-7.77-.66-1.18.17-1.47.58-1.26,1.79.27,1.5.62,3,1,4.46q3.36,12.63,6.76,25.23a12,12,0,0,1,.83,3.88c-.28,3.62,1.53,6.38,3.47,9.11a4.05,4.05,0,0,0,2.47,1.56,12.16,12.16,0,0,0,4.17-.05,5.86,5.86,0,0,0,5-3.88,10.09,10.09,0,0,0-2.5-.95,13.49,13.49,0,0,1-4.35-2.38,4.14,4.14,0,0,1-1.39-5,4,4,0,0,1,4.41-3c3.39.1,6.78.12,10.18,0a4.06,4.06,0,0,1,4.41,2.73,4.47,4.47,0,0,1-1.17,5.26,11.84,11.84,0,0,1-4.32,2.43,10.27,10.27,0,0,0-2.76,1c.91,1.33,1.61,2.8,3.25,3.35a11.09,11.09,0,0,0,5.51.49,4.29,4.29,0,0,0,2.46-1.23c2.27-2.43,4.12-5.09,4-8.61a14,14,0,0,1,.63-3.92q3.55-13.29,7.11-26.58c.35-1.28.59-2.59.91-3.88.21-.86,0-1.56-.9-1.7-2.68-.4-5.39-1-8,.46a4.43,4.43,0,0,1-1.51.47c-.8.12-1.18-.27-1-1,.72-2.5,1.51-4.94,3.59-6.76a17.54,17.54,0,0,1,6.39-3.59c3.39-1.05,4.9-3.67,6-6.72.16-.46.51-1-.25-1.5a9.12,9.12,0,0,1-2.9,1.88,14.59,14.59,0,0,1-6.12.59c-2.44-.3-4.87-.75-7.31-1a153.53,153.53,0,0,0-24.73-.13c-2.87.21-5.66.84-8.51,1.08-3.31.29-6.55.26-9.18-2.25-.15-.14-.36-.09-.74.28C538.68,382,539.49,384.84,542.5,386.3Z" transform="translate(-34.65 -19.15)"/><path class="cls-35" d="M603.08,415.78a25.46,25.46,0,0,0-.92-5.9,14,14,0,0,0-2-4.71c-1.31,2.13-2.57,4-2.65,6.48a26.61,26.61,0,0,1-.75,4.92A81.39,81.39,0,0,1,591.67,431a6.3,6.3,0,0,0-.65,2.69,31.63,31.63,0,0,1-.85,7.32c-.71,3.5-2,6.83-4.63,9.34a81.4,81.4,0,0,0-7.18,8,17.21,17.21,0,0,1-4.45,4,10.85,10.85,0,0,1-11.56.27,18.06,18.06,0,0,1-4.51-3.6c-3.14-3.36-6.05-6.91-8.86-10.54a16.81,16.81,0,0,1-3.06-6.44c-1.45-6.08-2.9-12.16-4.41-18.22-1.42-5.67-2.58-11.42-4.89-16.83-.21-.49-.19-1.2-.92-1.39a7.75,7.75,0,0,0-1.94,3.46,39.39,39.39,0,0,0-1.37,12.64,77.14,77.14,0,0,1,0,10c0,.3-.13.65.29.91,1.45-.11,2.77-1.07,4.35-1.09.34,6.51.68,12.93,1,19.83l4.19-3.93c.26.19.36.22.36.27a2.88,2.88,0,0,1,0,.59c-.14,7.72,2.56,14.44,7.21,20.49a82.61,82.61,0,0,0,8,8.66c3.24,3.17,6.63,6.17,9.71,9.5.34.37.57.9,1.28,1,3.53-3.66,7.08-7.34,10.45-11.2a64.76,64.76,0,0,0,11-17.53q2.22-5.24,4.54-10.42c.21-.49.26-1.17,1-1.35.79,1.13,1,2.55,2.08,3.74.32-6.72.63-13.16.94-19.73l4.47,1.12C602.79,426.81,603.27,421.3,603.08,415.78Z" transform="translate(-34.65 -19.15)"/><path class="cls-35" d="M568.19,448.2a21.42,21.42,0,0,0-3.9.23,3.2,3.2,0,0,0-2.71,1.75c-.5,1.28.23,2.32,1,3.24a7.27,7.27,0,0,0,11.13-.54c1.45-2,.87-3.7-1.54-4.33A14.29,14.29,0,0,0,568.19,448.2Z" transform="translate(-34.65 -19.15)"/><path class="cls-36" d="M675.17,469.05c-.12.16.21.36.39.49l.32-.34C675.67,469,675.4,468.73,675.17,469.05Z" transform="translate(-34.65 -19.15)"/><polygon class="cls-36" points="485.06 342.56 485.07 342.46 484.93 342.49 485.06 342.56"/><path class="cls-36" d="M616.11,361.71c.1.07.18-.09.11-.24C616.07,361.5,615.79,361.48,616.11,361.71Z" transform="translate(-34.65 -19.15)"/><path class="cls-36" d="M616.22,361.47h0l0,0Z" transform="translate(-34.65 -19.15)"/><path class="cls-36" d="M462.45,469.18l.14.07.14-.13-.13-.14Z" transform="translate(-34.65 -19.15)"/><path class="cls-37" d="M591.57,487.53h22a0,0,0,0,1,0,0V624.58a4.08,4.08,0,0,1-4.08,4.08H595.16a3.58,3.58,0,0,1-3.58-3.58V487.53A0,0,0,0,1,591.57,487.53Z"/><path class="cls-22" d="M710.93,545.54s-3.69-.59-4.59,9.3-5.27,90.29-5.27,90.29l14.5,3.22s18.82-56.8,11.87-92.16C727.44,556.19,725.09,540.55,710.93,545.54Z" transform="translate(-34.65 -19.15)"/><path class="cls-22" d="M762.68,489a14.35,14.35,0,0,0-2-2.37c-3.25-3-8-3.06-12.25-4.31-11.4-3.34-23.43,20-28.74,33.29C714,529.87,707,540.47,707.28,555.81c.09,4.52,1.21,9.66,5.14,11.9,3,1.73,7,1.16,10-.59s5.31-4.5,7.48-7.23c9.21-11.59,17.4-23.95,25.71-36.21,3.83-5.64,7.76-11.42,9.42-18C766.42,500.06,765.89,493.67,762.68,489Z" transform="translate(-34.65 -19.15)"/><path class="cls-22" d="M754.18,557.29s-3.74,0-3,9.93,7.7,77.67,7.7,77.67l15.83,1.88c3.59-43.89,10.61-52.51-.38-82C774.35,564.78,767.32,550,754.18,557.29Z" transform="translate(-34.65 -19.15)"/><path class="cls-22" d="M778.88,491.11c-5.3-3.61-11.89-3.27-17.34-.16-7.31,4.16-11.95,11.8-13.2,20.06-1.69,11.12-1.56,23.51-.74,34.71a114.88,114.88,0,0,0,2.91,18.39c1.25,5.08,1.73,11.78,6.21,15.38,3.28,2.63,9.24,3.16,12.75.57s5-7.68,6-11.86c1.15-4.78,2.47-9.54,3.62-14.33,2-8.18,3.62-16.45,5.65-24.62,2-7.86,3.55-16.38,2.34-24.49A20.07,20.07,0,0,0,778.88,491.11Z" transform="translate(-34.65 -19.15)"/><path class="cls-38" d="M784.05,496.87c-4-8.25-11.54-40.27-13.49-49.4s-4-18.42-5.8-27.67c-.76-3.93-1.11-8.11-2.06-12-1.26-5.2-5-8.56-9.34-11.07A68.3,68.3,0,0,0,741,390.87l-.47-.15c-1.54-.49-2.49.09-4.06-.1-6.6-.79-14.45,1.75-19,6.67l-8.81,9.42c-3.12,3.34-4.13,8.6-2.59,13.51,3.36,10.65,6.77,21.29,10.36,31.87,1.87,5.53,4.36,10.66,5.38,16.46,1.32,7.56-1.28,18.55,2.46,28.91,1.32,3.67,2.48,2.29,5.59,2.12,8.06-.44-2.17,8,5.87,8.27C744.58,508.17,786.36,501.61,784.05,496.87Z" transform="translate(-34.65 -19.15)"/><polygon class="cls-23" points="689.3 393.4 695.67 381.37 685.75 382.82 689.3 393.4"/><path class="cls-23" d="M732.45,378.89,736,390.35s1.7,14.61-15.25,11.88l-5.13-18Z" transform="translate(-34.65 -19.15)"/><path class="cls-39" d="M724,412.55l-5.36-2.82L720,399.56S724.1,412.28,724,412.55Z" transform="translate(-34.65 -19.15)"/><polygon class="cls-40" points="685.36 380.42 683.94 390.58 677.15 393.89 685.14 379.59 685.36 380.42"/><path class="cls-23" d="M727.39,364.84,730,383l.6,2.45c-4.3,10.34-13.47,12.65-16.93,9.87s-10-26.51-10-26.51Z" transform="translate(-34.65 -19.15)"/><path class="cls-41" d="M727.32,353.21c-12.4-5.87-18.89,4.15-20,4.32-7.93,1.16-7.72,13.32-3.79,15.58,5,2.87,13.29.87,13.29.87s2.9-.3,6.18,3.17c1.8,1.9,3.47,1.05,4.19,3.5.31,1.08.88,1.73,1.3.68l1.35-4,3.41,10.3c1.42-5.75,5.8-6.67,6.15-12.66l2.14-7C743.6,356.48,727.32,353.21,727.32,353.21Z" transform="translate(-34.65 -19.15)"/><path class="cls-23" d="M729.51,380.32c-7.32-5.45,17.81-4.57-1.72,9.47l-2-8.06A2.49,2.49,0,0,1,729.51,380.32Z" transform="translate(-34.65 -19.15)"/><polygon class="cls-42" points="705.94 371.11 699.21 392.06 690.15 387.79 701.45 369.2 705.94 371.11"/><polygon class="cls-43" points="690.15 387.79 689.3 393.4 692.94 389.03 690.15 387.79"/><path class="cls-44" d="M766.44,462.6c1.52.11,4.61-26.64,4.7-28.3.36-7.28-3.38-44-19.57-31a10.88,10.88,0,0,0-3.73,7.6c-1.21,12,4.68,44.6,4.68,44.6Z" transform="translate(-34.65 -19.15)"/><path class="cls-44" d="M740.34,493.75c3.26-3.56,8.89-9,10.28-10.31,2-1.85,24.88-21.6,12.76-31-2.81-2.18-6.07-.16-8.92,1.06-5.38,2.3-18.16,23.73-23,32.12A95.3,95.3,0,0,1,740.34,493.75Z" transform="translate(-34.65 -19.15)"/><path class="cls-38" d="M770.07,462.6c1.52.11,4.61-26.64,4.7-28.3.36-7.28-3.38-44-19.57-31a10.88,10.88,0,0,0-3.73,7.6c-1.21,12,4.67,44.6,4.67,44.6Z" transform="translate(-34.65 -19.15)"/><path class="cls-23" d="M767.06,453c-2.41-1.78-6.5-.33-9,.8-5.88,2.68-24.79,37.07-24.79,37.07l-4.72,3.07-5.38,2-3.42,1.25a9,9,0,0,1-3.1.2,6.35,6.35,0,0,0-1.55-.25.92.92,0,0,0-.86.68,1.12,1.12,0,0,0,.22.8,3.22,3.22,0,0,0,2.78,1.49,10.27,10.27,0,0,0,1.24-.17,3,3,0,0,1,1.24,0,1.32,1.32,0,0,1,.94.76c.2.54-.09.85-.49,1.09a9.55,9.55,0,0,0-1.34,1.13l-.79.72a9.3,9.3,0,0,0-.76.68c-.36.31-.71.63-1.06.95-3.35,2.77-5.6,2.17-7.22,4.49-1,1.36,1.22,1,1.3,2.8,0,1,5.62.08,4.7,1.21s2.25,2.4,7.09,1.67c4.23-.63,6.41-2.49,8.54-4.35a1.69,1.69,0,0,0,.45-.39l9.58-13.73c1.22-1.92,9.42-10,11.05-11.51C753.52,483.78,777.49,460.65,767.06,453Z" transform="translate(-34.65 -19.15)"/><path class="cls-38" d="M744,493.75c3.26-3.56,8.89-9,10.28-10.31,2-1.85,24.88-21.6,12.75-31-2.81-2.18-6.06-.16-8.91,1.06-5.38,2.3-18.17,23.73-23,32.12A96.58,96.58,0,0,1,744,493.75Z" transform="translate(-34.65 -19.15)"/><rect class="cls-45" x="737.04" y="480.49" width="7.13" height="15.72" transform="translate(-126.07 776.94) rotate(-53.7)"/><path class="cls-38" d="M712,465c1.41,0,6.66-21,6.63-22.58-.14-6.77-1.83-41.4-16-28.26a10.17,10.17,0,0,0-3,7.29c-.32,11.17.36,35.44.36,35.44Z" transform="translate(-34.65 -19.15)"/><path class="cls-23" d="M710,457.18c-1.89-2.05-4.82-.88-7.3-.28-5.83,1.4-25.74,24.54-25.74,24.54l-4.85,2-5.25.85-3.35.54a8.6,8.6,0,0,1-2.85-.37,6.86,6.86,0,0,0-1.37-.51.89.89,0,0,0-.91.47,1.06,1.06,0,0,0,.06.78,3,3,0,0,0,2.27,1.84,8.92,8.92,0,0,0,1.16.07,2.77,2.77,0,0,1,1.14.23,1.26,1.26,0,0,1,.71.86c.09.52-.23.75-.64.9a7.87,7.87,0,0,0-1.41.8l-.86.51a9.21,9.21,0,0,0-.81.49l-1.14.68c-3.54,1.93-5.49,1-7.37,2.81-1.11,1.08.93,1.13.69,2.78-.14,1,5.11,1.07,4.07,1.94s1.62,2.58,6.17,2.78a14.14,14.14,0,0,0,8.56-2.46,1.47,1.47,0,0,0,.47-.27l11.17-10.82c1.45-1.54,10.36-7.46,12.11-8.54C696.67,478.57,718.16,466,710,457.18Z" transform="translate(-34.65 -19.15)"/><path class="cls-38" d="M683.42,488.28c3.49-2.59,9.39-6.5,10.83-7.39,2.12-1.3,25.62-15,16.71-24.69-2.07-2.24-5.28-1-8-.31-5.12,1.23-20.13,17.74-25.88,24.24A76.8,76.8,0,0,1,683.42,488.28Z" transform="translate(-34.65 -19.15)"/><rect class="cls-46" x="678.21" y="475.98" width="6.62" height="14.6" transform="translate(-188.57 472.33) rotate(-35.9)"/><path class="cls-22" d="M702.81,645.51a10.17,10.17,0,0,1-1.64-2.2c-3.78,1.15-11.82,7.05-11.35,9.36.51,2.58,5.14,3.36,10.95,2.32l15.83-2.83s.95-5.16,0-7.28l-2.25-1.06C710.69,646.1,702.81,645.51,702.81,645.51Z" transform="translate(-34.65 -19.15)"/><path class="cls-22" d="M760.53,644.49a9.72,9.72,0,0,1-1.64-2.21c-3.79,1.16-11.83,7.05-11.36,9.36.51,2.59,5.14,3.36,11,2.32s15.83-2.82,15.83-2.82,1-5.17,0-7.28l-2.25-1.06C768.4,645.08,760.53,644.49,760.53,644.49Z" transform="translate(-34.65 -19.15)"/><path class="cls-47" d="M370.29,470.45s-4.48-3.45-5.49-8.28a58.61,58.61,0,0,1-.16-21.21,88.31,88.31,0,0,1,4.53-17.08c1.84-4.89,6.93-24.22,18.09-17.8a8.62,8.62,0,0,1,4.19,6.7c1.4,11.07-8,50.91-8,50.91S371.8,470.34,370.29,470.45Z" transform="translate(-34.65 -19.15)"/><path class="cls-24" d="M367.43,470.37s-4.47-3.44-5.49-8.28a58.77,58.77,0,0,1-.15-21.2,86.71,86.71,0,0,1,4.53-17.08c1.83-4.9,6.93-24.22,18.09-17.8a8.62,8.62,0,0,1,4.19,6.7c1.4,11.06-8,50.91-8,50.91S368.94,470.27,367.43,470.37Z" transform="translate(-34.65 -19.15)"/><path class="cls-24" d="M367.43,470.37s-6.1-10.75,1.88-15.81,17.23-5.22,42.49-16.94L418,452.1S378,473.18,367.43,470.37Z" transform="translate(-34.65 -19.15)"/></g></g></svg>