<svg id="Layer_1" data-name="Layer 1" xmlns="http://www.w3.org/2000/svg" xmlns:xlink="http://www.w3.org/1999/xlink" viewBox="0 0 1049 650.23"><defs><style>.cls-1{opacity:0.64;fill:url(#linear-gradient);}.cls-2{opacity:0.66;fill:url(#linear-gradient-2);}.cls-3{fill:url(#linear-gradient-3);}.cls-4{fill:url(#linear-gradient-4);}.cls-5{fill:url(#linear-gradient-5);}.cls-6{fill:#aaa5e4;}.cls-7{fill:#00ffc7;}.cls-8{fill:#102383;}.cls-9{fill:url(#linear-gradient-6);}.cls-10{fill:#0c002f;}.cls-11{fill:#f1b3ad;}.cls-12{fill:url(#linear-gradient-7);}.cls-13{fill:url(#linear-gradient-8);}.cls-14{fill:url(#linear-gradient-9);}.cls-15{fill:url(#linear-gradient-10);}.cls-16{fill:url(#linear-gradient-11);}.cls-17{fill:#0a205c;}.cls-18{fill:url(#linear-gradient-12);}.cls-19{fill:#f6bab8;}.cls-20{fill:url(#linear-gradient-13);}.cls-21{fill:#792eaf;}.cls-22{fill:#8045b7;}.cls-23{fill:#f5c9c7;}.cls-24{fill:url(#linear-gradient-14);}.cls-25{fill:#e0b9b8;}.cls-26{fill:#47206c;}.cls-27{fill:#545454;}.cls-28{fill:#797a7a;}.cls-29{fill:#d6afad;}.cls-30{fill:#232323;}.cls-31{fill:#3e3f3f;}.cls-32{fill:#c6a5a3;}.cls-33{opacity:0.48;}.cls-34,.cls-39{opacity:0.2;}.cls-35,.cls-39{fill:#4b5dec;}.cls-36,.cls-38{opacity:0.25;}.cls-37,.cls-38{fill:#f88658;}.cls-40{fill:none;stroke:#00ffc7;stroke-miterlimit:10;}</style><linearGradient id="linear-gradient" x1="264.12" y1="323.25" x2="261.16" y2="838.72" gradientTransform="matrix(1.29, 0.01, 0.01, 1.15, 198.29, -365.44)" gradientUnits="userSpaceOnUse"><stop offset="0.21" stop-color="#5527f9"/><stop offset="0.3" stop-color="#6237f9"/><stop offset="0.47" stop-color="#8462fb"/><stop offset="0.72" stop-color="#baa8fd"/><stop offset="1" stop-color="#fff"/></linearGradient><linearGradient id="linear-gradient-2" x1="871.16" y1="170.28" x2="284.2" y2="757.24" gradientTransform="matrix(0.95, -0.01, -0.01, 1, 4.61, 1.05)" gradientUnits="userSpaceOnUse"><stop offset="0" stop-color="#00b8ff"/><stop offset="0.77" stop-color="#7fc5ff"/><stop offset="1" stop-color="#a6c9ff"/></linearGradient><linearGradient id="linear-gradient-3" x1="251.97" y1="685.73" x2="1068.77" y2="139.76" gradientUnits="userSpaceOnUse"><stop offset="0" stop-color="#9cb8ce"/><stop offset="1" stop-color="#c6d9ea"/></linearGradient><linearGradient id="linear-gradient-4" x1="265.97" y1="706.6" x2="1082.31" y2="160.94" gradientTransform="matrix(1, 0, 0, 1, 0, 0)" xlink:href="#linear-gradient-2"/><linearGradient id="linear-gradient-5" x1="1039.55" y1="175.15" x2="365.36" y2="617.91" gradientUnits="userSpaceOnUse"><stop offset="0.21" stop-color="#1e0098"/><stop offset="0.28" stop-color="#2d109f"/><stop offset="0.44" stop-color="#533cb0"/><stop offset="0.65" stop-color="#9081cc"/><stop offset="0.92" stop-color="#e3e0f2"/><stop offset="1" stop-color="#fff"/></linearGradient><linearGradient id="linear-gradient-6" x1="-1910.88" y1="151.28" x2="-1912.4" y2="139.34" gradientTransform="matrix(-1, 0.07, 0.07, 1, -1131.27, 291.17)" gradientUnits="userSpaceOnUse"><stop offset="0" stop-color="#f8fafb"/><stop offset="0.3" stop-color="#eff4fc"/><stop offset="0.79" stop-color="#d7e3fe"/><stop offset="1" stop-color="#cbdaff"/></linearGradient><linearGradient id="linear-gradient-7" x1="3598.69" y1="542.84" x2="3598.69" y2="528.23" gradientTransform="translate(-2854.65 -357.7) rotate(1.5)" gradientUnits="userSpaceOnUse"><stop offset="0" stop-color="#e7e4ff"/><stop offset="0.35" stop-color="#c7cffa"/><stop offset="0.77" stop-color="#a8bbf4"/><stop offset="1" stop-color="#9cb3f2"/></linearGradient><linearGradient id="linear-gradient-8" x1="3602.95" y1="539.96" x2="3602.95" y2="527.31" gradientTransform="translate(-2873.65 -364.06) rotate(1.5)" gradientUnits="userSpaceOnUse"><stop offset="0" stop-color="#f8fafb"/><stop offset="1" stop-color="#cbdaff"/></linearGradient><linearGradient id="linear-gradient-9" x1="-2212.77" y1="1140.17" x2="-2213.11" y2="1107.26" gradientTransform="matrix(-0.81, 0.59, 0.59, 0.81, -1736.1, 615.84)" gradientUnits="userSpaceOnUse"><stop offset="0.3" stop-color="#241f20"/><stop offset="0.59" stop-color="#0d243f"/><stop offset="0.79" stop-color="#002650"/></linearGradient><linearGradient id="linear-gradient-10" x1="3583.32" y1="544.21" x2="3583.32" y2="521.04" gradientTransform="translate(-2873.65 -364.06) rotate(1.5)" xlink:href="#linear-gradient-6"/><linearGradient id="linear-gradient-11" x1="3593.81" y1="542.84" x2="3593.81" y2="537.24" gradientTransform="translate(-2873.65 -364.06) rotate(1.5)" xlink:href="#linear-gradient-7"/><linearGradient id="linear-gradient-12" x1="-3794.78" y1="3097.13" x2="-3797.08" y2="3079.01" gradientTransform="matrix(1, 0, 0, -1, 4530.27, 3394.8)" xlink:href="#linear-gradient-6"/><linearGradient id="linear-gradient-13" x1="1015.36" y1="617.64" x2="1014.81" y2="564.75" gradientTransform="translate(-606.78 -133.67) rotate(-10.72)" gradientUnits="userSpaceOnUse"><stop offset="0" stop-color="#52140c"/><stop offset="1" stop-color="#8f430d"/></linearGradient><linearGradient id="linear-gradient-14" x1="-2264.5" y1="1612.31" x2="-2264.83" y2="1580.16" gradientTransform="matrix(-0.69, 0.73, 0.73, 0.69, -2198.1, 794.23)" xlink:href="#linear-gradient-13"/></defs><path class="cls-1" d="M811.25,160.6C755,145.92,692.51,139.09,644.06,115.39,587.84,87.91,557.8,41,496.32,18.78,438-2.31,362.23,4.89,309.1,29.66S223.41,94,207.28,135.12q-1.59,4.06-2.82,7.74a30.4,30.4,0,0,0-1.43,4.52h0c-.7,2.33-1.28,4.56-1.77,6.7-16.49,57.6-66.32,112.07-93.7,135.44q-3.34,2.67-6.6,5.37h0c-35.5,29.57-62.75,62.67-75.34,99.23C2.59,461,39.94,540.34,133.21,575.52c74,27.91,166,23.82,248.41,11.48s163.1-32.1,248.07-32.85c54.65-.49,108.9,7,163.46,10.06s112,1.46,159.16-15.63c62.11-22.49,95.83-68.3,106.08-113.88C1083.46,323.26,975.43,203.43,811.25,160.6Z" transform="translate(-19 -6.36)"/><path class="cls-2" d="M861.7,241.56C809.79,219.36,750,204.25,707.81,174c-49-35.08-67.88-86.24-123.2-116.73C532.16,28.36,456.16,25.62,398.44,43.55s-98.6,53.51-123.68,92.73c-1.66,2.59-3.15,5.06-4.52,7.42a37,37,0,0,0-2.42,4.36h0c-1.2,2.26-2.28,4.42-3.24,6.51-29.16,55.81-90.34,104.07-122.48,124-2.58,1.49-5.15,3-7.68,4.53h0c-41.5,25.08-75.7,54.81-96.29,90-37.68,64.3-18.91,149.08,64.69,196.8,66.3,37.84,157.54,45.85,241.18,44.3s167.29-10.81,250.84-.37c53.73,6.72,105.29,21.36,158.13,31.68s109.55,16.24,159.71,5.26c66-14.45,109.42-56.12,129.76-100.65C1092.16,441.18,1013.15,306.32,861.7,241.56Z" transform="translate(-19 -6.36)"/><path class="cls-3" d="M1067.92,200.72c-.77-3.42-10.93-39.76-19.17-61.61S1033.69,108,1033,107.77c-1.7-.58-5.28-.87-7.55-1.44,2.62.6,6.38,5.42,9.35,12.6,5.55,13.42,25.79,75,26.87,81.44s-3.42,3.94-15.23,2.87C1046.43,203.24,1069.53,207.94,1067.92,200.72Z" transform="translate(-19 -6.36)"/><path class="cls-4" d="M1046.43,203.64s-7.18,0-12,21.67c-2.43,10.89-13.85,47.29-24.94,81.81-.19.53-.37,1.07-.53,1.61s-.39,1.22-.58,1.82v.05l-.52,1.56c-.05.13-.06.25-.1.35-10.32,32.07-20,61.28-21.33,65.23-2.86,8.43-28.31,95.48-47.82,125.21s-28.12,47.63-65.2,54.44-189.5,4.49-189.5,4.49H104.81V548.62H801.2s25.18,1,46.95,0h9.31l.62-.64a109.59,109.59,0,0,0,12.45-1.69C891,542,912.44,514.94,924.8,487c.39-.88.81-1.92,1.31-3.1.24-.6.5-1.22.77-1.89.8-2,1.7-4.34,2.71-7,.3-.78.6-1.57.9-2.39.61-1.57,1.21-3.23,1.88-4.94.23-.69.49-1.38.77-2.09.56-1.59,1.18-3.22,1.8-4.94,1-2.64,2-5.42,3-8.35,2.19-6,4.56-12.65,7-19.64l1-2.9c.83-2.41,1.72-4.84,2.58-7.3q1.15-3.33,2.36-6.71c1.08-3,2.15-6.13,3.24-9.24L958.61,394l1.54-4.41c3.25-9.34,6.54-18.84,9.81-28.3l1.74-5c5-14.53,9.91-28.8,14.42-42,.2-.54.37-1.08.54-1.61.26-.69.49-1.38.71-2.06.19-.52.36-1,.53-1.53.05-.11.07-.21.12-.32.19-.54.36-1.08.55-1.61.75-2.22,1.51-4.39,2.21-6.52.6-1.76,1.21-3.48,1.79-5.2q2.45-7.18,4.62-13.54.93-2.75,1.8-5.28l5.1-14.95c.26-.77.52-1.52.75-2.23l.75-2.17c.22-.68.46-1.34.65-1.93,1-2.8,1.65-4.82,2-6,5.55-16.29,14-43,15.93-46.22S1034.61,202.57,1046.43,203.64Z" transform="translate(-19 -6.36)"/><path class="cls-5" d="M1061.78,202.18c.06,1.39-.33,2.15-1.14,2.53-2,.93-6.56-.38-14.21-1.07-11.82-1.07-20.25-3.76-22.22-.54s-10.38,29.93-15.93,46.22c-1.8,5.26-9.87,29-20.38,59.73-.17.52-.34,1-.53,1.53-.22.68-.45,1.37-.71,2.06-.17.53-.34,1.07-.54,1.61C964.18,378.35,932.94,468.6,924.8,487c-12.36,27.94-33.85,55-54.27,59.29A109.59,109.59,0,0,1,858.08,548c-3.15.27-6.49.48-9.93.64H104.81l8.79-28.48h640c33.66,0,74.16,5.91,92.23-10.75s27.77-33.48,45.5-81c15.37-41.12,34.76-101.07,43.74-129.51.2-.57.37-1.13.54-1.67.34-1.08.64-2.09,1-3.05.17-.6.36-1.18.54-1.74.49-1.61.94-3,1.33-4.28,6.26-20.23,25.79-83.64,24.35-87.05s-31.71-1.25-38.69-5-.17-9.85,9.68-16.49,45.3-35.26,52.29-40.47c0,0,25.62-24.35,32.24-29.92,2.41-2,4.49-3,6.45-2.89h0c.15,0,.79.17,1.62.38l.29.13c2.53,1.24,4.9,4.67,7.55,10.75.19.42.36.86.55,1.3,1,2.31,2.34,6.07,4,10.72,7.93,22.39,22,65.83,22.87,71.15A8.46,8.46,0,0,1,1061.78,202.18Z" transform="translate(-19 -6.36)"/><path class="cls-6" d="M848.15,542.18H801.22S826.39,543.19,848.15,542.18Z" transform="translate(-19 -6.36)"/><path class="cls-7" d="M1008.56,310.54l-.19.06-.52,1.56c-.94.09-1.93.11-3,.11s-2.21,0-3.37-.11h0c-4.19-.21-9-.79-14.12-1.58-5.42-.84-11.24-1.89-17.33-3l-.24,0c-16.48-3-28.15-8.47-33.24-13.34.17-.6.36-1.18.54-1.74,4.06,4.39,15.13,10.29,33,13.52l.23,0c6.2,1.11,12.13,2.19,17.58,3,8.18,1.25,15.27,2,20.47,1.5Z" transform="translate(-19 -6.36)"/><path class="cls-7" d="M1008.37,310.6l-.52,1.56c-.05.13-.06.25-.1.35a54.05,54.05,0,0,1-15.54,2c-1.9,0-3.92-.05-6.09-.23a120.06,120.06,0,0,1-17.6-2.64c-20.48-4.52-29.23-9.31-33.47-12.69.2-.57.37-1.13.54-1.67,3.87,3.23,12.38,8.17,33.27,12.79a112.67,112.67,0,0,0,17.8,2.6,69.25,69.25,0,0,0,14.83-.48h0A37.69,37.69,0,0,0,1008.37,310.6Z" transform="translate(-19 -6.36)"/><path class="cls-8" d="M764.52,318.87c-1.18,1-20-12.86-21-14.16-4.53-5.72-27-35.6-6.2-34.43a10.89,10.89,0,0,1,7.46,4c8,9,24.1,29.64,24.1,29.64Z" transform="translate(-19 -6.36)"/><path class="cls-8" d="M804.2,318.54c-4.67.25-12.26,1.08-14.06,1.33-2.65.38-31.59,5.17-30.85-9,.17-3.28,3.71-4.42,6.4-5.75,5.09-2.5,29.74,1,39,2.43C804.57,311.27,803.81,314.84,804.2,318.54Z" transform="translate(-19 -6.36)"/><polygon class="cls-9" points="779.8 312.58 785.2 312.17 792.07 301.89 785.67 301.2 779.8 312.58"/><path class="cls-10" d="M767.5,428.72s3.58-1.85,7.81,8S811,527.4,811,527.4l-13.76,8.16s-38.35-51.85-43.11-90.39C754.15,445.17,751.32,428.36,767.5,428.72Z" transform="translate(-19 -6.36)"/><path class="cls-10" d="M715.31,368.78a14.76,14.76,0,0,1,2.2-2.55c3.5-3.26,8.61-3.3,13.2-4.64,12.28-3.6,25.24,21.56,31,35.87,6.14,15.35,13.68,26.78,13.34,43.3-.1,4.88-1.3,10.41-5.54,12.83-3.26,1.87-7.5,1.25-10.75-.64s-5.73-4.84-8.07-7.78c-9.92-12.5-18.75-25.82-27.71-39-4.12-6.08-8.36-12.31-10.15-19.44C711.27,380.68,711.85,373.79,715.31,368.78Z" transform="translate(-19 -6.36)"/><path class="cls-10" d="M706.72,437.07s4,0,3.21,10.69-8.29,83.71-8.29,83.71l-17.06,2c-3.87-47.3-11.44-56.59.41-88.37C685,445.13,692.56,429.24,706.72,437.07Z" transform="translate(-19 -6.36)"/><path class="cls-10" d="M714.9,364c-5.71-3.89-12.81-3.53-18.69-.17-7.87,4.48-12.88,12.71-14.23,21.62-1.81,12-1.68,25.34-.79,37.4a122.76,122.76,0,0,0,3.14,19.83c1.34,5.47,1.86,12.69,6.69,16.56,3.54,2.84,10,3.42,13.75.62s5.38-8.27,6.47-12.78c1.24-5.15,2.65-10.28,3.9-15.44,2.14-8.82,3.9-17.73,6.09-26.53,2.11-8.48,3.82-17.66,2.52-26.4A21.55,21.55,0,0,0,714.9,364Z" transform="translate(-19 -6.36)"/><path class="cls-8" d="M682.8,382.63c2.12-9.65,3.55-45.36,3.3-55.42s-.44-20.32-.89-30.46c-.19-4.31-.87-8.78-.86-13.07,0-5.77,3.13-10.24,7-13.95a73.09,73.09,0,0,1,11.45-9.27l.46-.28c1.49-.9,2.64-.53,4.24-1.12,6.71-2.5,15.57-1.8,21.62,2.19l11.61,7.66c4.11,2.72,6.49,8,6.11,13.5-.84,12-1.74,24-2.83,36-.58,6.26-1.89,12.27-1.5,18.61.51,8.25,9.71,27.32,8.4,39.13-.46,4.17-4.75,3.22-13.11,5.55C728.59,384.28,681.59,388.18,682.8,382.63Z" transform="translate(-19 -6.36)"/><polygon class="cls-11" points="707.15 272.52 697.45 261.52 708.21 260.53 707.15 272.52"/><path class="cls-11" d="M708.78,245.75l-.87,12.9s1.91,15.75,19,8.63l.84-20.19Z" transform="translate(-19 -6.36)"/><path class="cls-12" d="M726.15,278.88l4.91-4.3-4-10.3S725.93,278.64,726.15,278.88Z" transform="translate(-19 -6.36)"/><polygon class="cls-13" points="708.02 257.92 712.06 268.21 720.01 269.97 708.04 257 708.02 257.92"/><path class="cls-11" d="M710.54,229.75l1.78,19.65v2.71c7.1,9.76,17.29,9.87,20.22,6.09s3.79-30.3,3.79-30.3Z" transform="translate(-19 -6.36)"/><path class="cls-14" d="M707.69,217.54c11.52-9.26,20.83-.39,22.08-.5,8.6-.79,11.43,12,7.89,15.37-4.5,4.26-13.71,4.26-13.71,4.26s-3.11.4-5.68,4.87c-1.41,2.45-3.37,2-3.5,4.72-.06,1.21-.5,2-1.2,1.05l-2.42-3.85-1,11.65c-2.92-5.67-7.75-5.53-9.63-11.72l-4-6.82C691.45,225.07,707.69,217.54,707.69,217.54Z" transform="translate(-19 -6.36)"/><path class="cls-11" d="M712.21,246.51c6.31-7.55-19.81-.31,4.19,9.48l.06-8.94A2.68,2.68,0,0,0,712.21,246.51Z" transform="translate(-19 -6.36)"/><polygon class="cls-15" points="684.11 253.34 696.43 273.61 704.86 266.86 688.33 250.22 684.11 253.34"/><polygon class="cls-16" points="704.86 266.86 707.15 272.52 702.24 268.86 704.86 266.86"/><path class="cls-17" d="M697.16,340.74c-1.56.5-11.53-26.75-12-28.47-2.21-7.54-7.54-47,12.7-37.43a11.78,11.78,0,0,1,5.83,7c4.28,12.24,6.32,47.91,6.32,47.91Z" transform="translate(-19 -6.36)"/><path class="cls-17" d="M737.79,314.9c-4.36,2.84-11.19,7.85-12.78,9.11-2.33,1.84-27.37,22.62-35.23,8.06-1.83-3.37.9-6.48,2.7-9.29,3.4-5.31,28.44-15.11,38.22-18.78A104.8,104.8,0,0,0,737.79,314.9Z" transform="translate(-19 -6.36)"/><path class="cls-8" d="M693.36,341.65c-1.56.5-11.54-26.75-12-28.47-2.21-7.53-7.54-47,12.7-37.42a11.71,11.71,0,0,1,5.82,7c4.29,12.25,6.32,47.92,6.32,47.92Z" transform="translate(-19 -6.36)"/><path class="cls-8" d="M739.94,314.76c-3.64,3.72-9.21,10.1-10.49,11.67-1.88,2.3-21.8,28-32.64,15.53-2.51-2.89-.52-6.52.62-9.65,2.16-5.92,24.47-20.93,33.22-26.65A103.63,103.63,0,0,0,739.94,314.76Z" transform="translate(-19 -6.36)"/><path class="cls-10" d="M809.37,528.38a10.64,10.64,0,0,0,.94-2.82c4.26-.09,14.47,3.26,14.77,5.78.34,2.82-4.14,5.17-10.44,6s-17.16,2.42-17.16,2.42-2.7-5-2.44-7.46l1.94-1.84C801.5,531.62,809.37,528.38,809.37,528.38Z" transform="translate(-19 -6.36)"/><path class="cls-10" d="M687.07,531.71a10.61,10.61,0,0,1-1.77-2.38c-4.08,1.24-12.74,7.6-12.23,10.09.55,2.79,5.54,3.62,11.79,2.5s17.07-3,17.07-3,1-5.57,0-7.85l-2.43-1.15C695.55,532.35,687.07,531.71,687.07,531.71Z" transform="translate(-19 -6.36)"/><path class="cls-11" d="M729.8,306.87c1.21-1.37,5.57-7.71,12.07-5.16s12,7.35,10.78,8.25-5.54-2-5.54-2,4.44,2.62,3.62,3.88-7.16-3.09-7.16-3.09,4.41,4.31,3.63,5.14-5.42-3.57-5.42-3.57-1,3.35-1.88,3.52a15.32,15.32,0,0,0-5-4.61C731.93,307.77,729.8,306.87,729.8,306.87Z" transform="translate(-19 -6.36)"/><rect class="cls-18" x="730.09" y="302.99" width="7.68" height="16.94" transform="translate(1479.73 79.85) rotate(140.59)"/><path class="cls-11" d="M804.2,318.54c.4.13,6.2,1.94,9.83,1l5.4-5-8.36-6.28a16.17,16.17,0,0,0-7.13,5.23C801.67,316.76,804.2,318.54,804.2,318.54Z" transform="translate(-19 -6.36)"/><path class="cls-19" d="M819.67,314.57c2.21-.8-3.66-7.42-4.92-6S818.19,315.11,819.67,314.57Z" transform="translate(-19 -6.36)"/><path class="cls-19" d="M812.41,309.2c-1.61,1.61,4,9.4,5.64,7.38S814,307.58,812.41,309.2Z" transform="translate(-19 -6.36)"/><path class="cls-19" d="M809.46,310.81c-1.08,1.75,4.84,7.86,6.72,6.82S810.53,309.07,809.46,310.81Z" transform="translate(-19 -6.36)"/><path class="cls-19" d="M808.12,314.15c-2,2.5,5.32,6.47,6.42,4.18S809.19,312.78,808.12,314.15Z" transform="translate(-19 -6.36)"/><path class="cls-7" d="M1006.22,312.42H680.5c.32.5.68,1.05,1.07,1.62h324.1C1005.84,313.5,1006,313,1006.22,312.42Z" transform="translate(-19 -6.36)"/><path class="cls-20" d="M507.66,238.06s-14.49-5.89-17,12.11c0,0-1.88,11.94,1.59,21,4.72,12.32,4.8,20,4.8,20S511.63,262.45,507.66,238.06Z" transform="translate(-19 -6.36)"/><path class="cls-21" d="M587,326c-.63,1.48-23.57-9-24.9-10.13-5.83-5-35-31.65-13.21-34.52a11.55,11.55,0,0,1,8.54,2.7c10,7.82,30.85,26,30.85,26S588.25,323.15,587,326Z" transform="translate(-19 -6.36)"/><path class="cls-21" d="M619,316.78c-4.83,1.05-8.47,4.07-10.31,4.64-2.7.84-29.79,11.86-31.39-3-.37-3.45,3.14-5.24,5.72-7.07,4.89-3.46,27.74-3,37.61-3C621.13,312.16,618,313,619,316.78Z" transform="translate(-19 -6.36)"/><path class="cls-10" d="M582,423.75s2.85-1.95,6.21,8.43S616.6,528,616.6,528l-11,8.63s-30.5-54.79-34.28-95.51C571.37,441.13,569.11,423.37,582,423.75Z" transform="translate(-19 -6.36)"/><path class="cls-10" d="M540.47,360.42a16,16,0,0,1,1.75-2.7c2.78-3.44,6.85-3.48,10.5-4.9,9.77-3.8,20.08,22.78,24.63,37.9,4.88,16.22,10.88,28.29,10.61,45.75-.08,5.16-1,11-4.41,13.56-2.6,2-6,1.32-8.55-.67s-4.56-5.12-6.42-8.23c-7.89-13.2-14.91-27.28-22-41.23-3.28-6.43-6.64-13-8.07-20.54C537.26,373,537.72,365.71,540.47,360.42Z" transform="translate(-19 -6.36)"/><path class="cls-10" d="M531.54,434.44s3-.49,3.22,10.53.68,86.69.68,86.69l-12.33,4.25c-6.66-47.9-13-56.44-6.85-90.46C516.26,445.45,520.53,428.23,531.54,434.44Z" transform="translate(-19 -6.36)"/><path class="cls-10" d="M540.15,355.41c-4.55-4.11-10.19-3.72-14.87-.18C519,360,515,368.66,514,378.07c-1.45,12.67-1.34,26.78-.63,39.52a169.72,169.72,0,0,0,2.49,21c1.07,5.78,1.48,13.41,5.32,17.51,2.82,3,7.93,3.6,10.94.65s4.28-8.74,5.14-13.51c1-5.44,2.12-10.86,3.11-16.31,1.7-9.32,3.1-18.73,4.84-28,1.68-8.95,3-18.65,2-27.88C546.44,364.33,543.79,358.7,540.15,355.41Z" transform="translate(-19 -6.36)"/><path class="cls-22" d="M513.22,385.59c.31-10.44-3.28-23.57-5.53-34s-4.44-21-6.9-31.44c-1-4.44-2.63-8.95-3.46-13.41-1.11-6,1.25-11.23,4.54-15.85a77.1,77.1,0,0,1,10.07-11.87l.42-.38c1.37-1.23,2.63-1.07,4.18-2,6.47-3.91,15.81-4.93,22.88-2L553,280.37c4.8,2,8.31,7,9,12.82,1.5,12.63,2.92,25.27,4.14,37.93.63,6.62.45,13.11,2.1,19.61,2.15,8.47,2.18,7,3.14,19.5.34,4.42,1.28,3.1-6.93,7.16C555.34,381.87,513.05,391.59,513.22,385.59Z" transform="translate(-19 -6.36)"/><path class="cls-23" d="M521.25,264.15l-4.37,12s5.07,16,21.39,5.22l-6.91-19.05Z" transform="translate(-19 -6.36)"/><path class="cls-23" d="M513.93,245.64l5.71,20.05.51,2.82c9.3,8.74,19.9,6.85,22.2,2.35s-2-32.19-2-32.19Z" transform="translate(-19 -6.36)"/><path class="cls-24" d="M508.08,235.51c4.88-4.34,9.38-8.45,16.17-7.18,1.55.29,4.27.08,5.79.35a22.6,22.6,0,0,1,7.15,2.92c3.95,2.16,8.18,9.41,5.11,13.67-3.83,5.3-13.4,7.11-13.4,7.11s-3.15,1-4.93,6.17c-1,2.82-3.12,2.71-2.72,5.6.18,1.26-.11,2.2-1,1.31L517,261.94l.18,7.35C513,264,509.08,270,505.91,264c-1.23-2.37-3.59-3.79-5.1-5.94a12.36,12.36,0,0,1-2.23-7.81,16.17,16.17,0,0,1,3.73-8.8A47.9,47.9,0,0,1,508.08,235.51Z" transform="translate(-19 -6.36)"/><path class="cls-23" d="M519,262.71c5.06-9.07-20.63,3.58,6.21,9l-1.7-9.3A2.82,2.82,0,0,0,519,262.71Z" transform="translate(-19 -6.36)"/><path class="cls-10" d="M615.32,528.15a15.15,15.15,0,0,0,.78-3.11c3.54-.09,12,3.59,12.27,6.38.28,3.11-3.44,5.7-8.67,6.68l-14.26,2.67s-2.25-5.49-2-8.23l1.62-2C608.78,531.73,615.32,528.15,615.32,528.15Z" transform="translate(-19 -6.36)"/><path class="cls-10" d="M523.27,531.52a11.74,11.74,0,0,1-1.41-2.52c-3.25,1.32-10.14,8-9.73,10.66.44,3,4.41,3.83,9.38,2.65l13.57-3.22s.82-5.89,0-8.3l-1.92-1.2C530,532.19,523.27,531.52,523.27,531.52Z" transform="translate(-19 -6.36)"/><path class="cls-23" d="M544.43,326.32c1.53.52,7.66,3.46,11.51-1.34s5.92-10.89,4.63-11.06-3.37,3.94-3.37,3.94,2.25-4,1.07-4.56-4.13,5.51-4.13,5.51,1.48-5.23.52-5.52-2.58,5.1-2.58,5.1-7.22,1-8,1.29c0,0,1.7.79.1,3.22S544.43,326.32,544.43,326.32Z" transform="translate(-19 -6.36)"/><path class="cls-23" d="M612.9,315.32c.38.27,5.87,4.11,10,4.34l7.36-3.46-6.7-9.4s-5.37.14-9.25,3.13C610.83,312.6,612.9,315.32,612.9,315.32Z" transform="translate(-19 -6.36)"/><path class="cls-25" d="M630.5,316.32c2.59-.11-1.37-9-3.18-7.95S628.76,316.38,630.5,316.32Z" transform="translate(-19 -6.36)"/><path class="cls-25" d="M624.66,308.24c-2.23,1.15,1.1,11.23,3.47,9.65S626.89,307.08,624.66,308.24Z" transform="translate(-19 -6.36)"/><path class="cls-25" d="M621,309c-1.71,1.48,2.47,9.89,4.79,9.42S622.72,307.47,621,309Z" transform="translate(-19 -6.36)"/><path class="cls-25" d="M618.49,312c-2.92,2,3.44,8.57,5.36,6.53S620.07,310.93,618.49,312Z" transform="translate(-19 -6.36)"/><path class="cls-7" d="M682.11,312.42H507.6c.17.5.36,1.05.57,1.62H681.82C681.91,313.5,682,313,682.11,312.42Z" transform="translate(-19 -6.36)"/><path class="cls-26" d="M520,338.23c-.94,1.46-8-8.61-8.88-10.3-3.78-7.39-23.83-41.12-.93-35.15a12.37,12.37,0,0,1,7.42,6.15c6.85,11.87,13.89,40.51,13.89,40.51S527,327.37,520,338.23Z" transform="translate(-19 -6.36)"/><path class="cls-21" d="M519,337.3c-.94,1.46-8.22-6.78-9.08-8.47-3.78-7.39-23.83-41.12-.93-35.15a12.37,12.37,0,0,1,7.43,6.15c6.85,11.87,13.7,39.83,13.7,39.83S525.92,326.44,519,337.3Z" transform="translate(-19 -6.36)"/><path class="cls-26" d="M554.33,326.43c-3.86,1.81-10,5.11-11.38,5.95-2.09,1.23-24.69,15.27-29.57,2.59-1.13-2.94,1.42-5.15,3.18-7.22,3.33-3.93,24.78-9.07,33.14-10.95A83.45,83.45,0,0,0,554.33,326.43Z" transform="translate(-19 -6.36)"/><path class="cls-21" d="M555.2,327.83c-3.85,1.82-9.94,5.13-11.37,6-2.09,1.23-24.67,15.31-29.56,2.64-1.14-2.94,1.41-5.15,3.16-7.23,3.33-3.93,24.76-9.1,33.12-11A85.13,85.13,0,0,0,555.2,327.83Z" transform="translate(-19 -6.36)"/><path class="cls-6" d="M650.26,542.4H603.33S628.5,543.42,650.26,542.4Z" transform="translate(-19 -6.36)"/><path class="cls-6" d="M470.11,536H428S450.59,537,470.11,536Z" transform="translate(-19 -6.36)"/><path class="cls-27" d="M401.89,331.11c-1.18,1-20-12.86-21.05-14.17-4.53-5.71-27-35.59-6.2-34.42a10.92,10.92,0,0,1,7.46,4c8,9,24.1,29.64,24.1,29.64Z" transform="translate(-19 -6.36)"/><path class="cls-10" d="M413.51,425.42s3.31-1.66,6.53,8.38,26.63,92.43,26.63,92.43l-12.81,7.42s-31.29-53.79-33.28-92.52C400.58,441.13,399,424.2,413.51,425.42Z" transform="translate(-19 -6.36)"/><path class="cls-10" d="M350,374a15,15,0,0,1,1.33-2.94c2.31-3.89,6.76-5,10.46-7.25,9.89-6,27,15.76,35.3,28.51,8.89,13.67,18.11,23.23,21.62,39.38,1,4.77,1.26,10.4-1.88,13.64-2.43,2.49-6.27,2.75-9.54,1.59s-6.12-3.53-8.84-5.91c-11.54-10.1-22.32-21.24-33.18-32.24-5-5.07-10.14-10.26-13.34-16.82C349.23,386.45,348.14,379.63,350,374Z" transform="translate(-19 -6.36)"/><path class="cls-10" d="M346.2,443.43s3.33,1.4-1.42,11-38.84,74.52-38.84,74.52L291,525c14.85-45,12.12-56.22,34.08-81.53C325.1,443.44,337.45,431.34,346.2,443.43Z" transform="translate(-19 -6.36)"/><path class="cls-10" d="M351.42,359.93c-5.13-3.88-11.49-3.52-16.77-.17-7.06,4.49-11.56,12.72-12.77,21.62-1.63,12-1.51,25.34-.71,37.41A135.12,135.12,0,0,0,324,438.61c1.2,5.47,1.67,12.7,6,16.57,3.17,2.83,8.94,3.41,12.33.62,3.54-2.91,4.84-8.28,5.81-12.79,1.11-5.15,2.39-10.27,3.51-15.44,1.91-8.82,3.5-17.73,5.46-26.53,1.89-8.48,3.43-17.65,2.26-26.39C358.51,368.37,355.52,363.05,351.42,359.93Z" transform="translate(-19 -6.36)"/><path class="cls-28" d="M322.44,376c2.12-9.65,1.28-26.47,1-36.54s-.44-20.31-.89-30.45c-.19-4.31-.87-8.78-.86-13.08,0-5.76,3.13-10.23,7-13.94a73.09,73.09,0,0,1,11.45-9.27l.46-.28c1.49-.9,2.64-.53,4.24-1.12,6.71-2.5,15.57-1.8,21.62,2.19l11.61,7.66c4.11,2.71,6.49,8,6.11,13.5-.84,12-1.74,24-2.83,36-.58,6.27-1.89,12.28-1.5,18.61.51,8.26,3.13,9.38,1.82,21.18-.47,4.18-7.4,5.26-15.75,7.59C356.74,380.6,321.23,381.53,322.44,376Z" transform="translate(-19 -6.36)"/><polygon class="cls-29" points="344.24 284.3 330.88 272.41 345.3 272.32 344.24 284.3"/><path class="cls-29" d="M346.15,258l-.87,12.9s2,14.91,19,7.79l.8-19.35Z" transform="translate(-19 -6.36)"/><path class="cls-29" d="M347.91,242l1.78,19.65v2.71c7.1,9.76,17.29,9.87,20.22,6.09s3.79-30.3,3.79-30.3Z" transform="translate(-19 -6.36)"/><path class="cls-30" d="M345,229.77a21.14,21.14,0,0,1,11.53-3.43c5.89.23,11.8.88,15.59,5.95,2.33,3.12,5.88,9,2.65,12.57a9.43,9.43,0,0,1-3.73,2.28c-4,1.46-7.92,1-12,1.61-3.26.49-4.39,3.32-6.88,5-1.25.84-2.72,1.61-2.81,3.32-.06,1.21,2.26,3.46,1.56,2.47l-2.42-3.84s-3.24,15.63-3.24,15.66c.1-1.19-.13-7.48-.92-8.26a37.17,37.17,0,0,1-3.36-3.4c-1.25-1.62-1.75-3.64-2.73-5.41-1.08-1.95-2.42-3.83-2.88-6.07C333.86,240.69,338.6,233.74,345,229.77Z" transform="translate(-19 -6.36)"/><path class="cls-29" d="M350.56,257.86c6.3-7.54-19.82-.3,4.19,9.49l.06-9A2.69,2.69,0,0,0,350.56,257.86Z" transform="translate(-19 -6.36)"/><path class="cls-31" d="M334.53,353c-1.56.5-7.48-28.48-8-30.2-2.21-7.53-11.59-45.27,8.65-35.7a11.78,11.78,0,0,1,5.83,7c4.28,12.24,6.32,47.91,6.32,47.91Z" transform="translate(-19 -6.36)"/><path class="cls-10" d="M444.37,524.19a11.68,11.68,0,0,0,.84-2.81c3.83-.09,13,3.25,13.25,5.77.31,2.82-3.71,5.17-9.36,6.06l-15.4,2.42s-2.43-5-2.19-7.46l1.74-1.84C437.31,527.44,444.37,524.19,444.37,524.19Z" transform="translate(-19 -6.36)"/><path class="cls-10" d="M304.52,525.76a10.7,10.7,0,0,0,1.94-2.11c3.42,1.8,10.12,9.28,9.28,11.67-.92,2.68-5.47,2.81-10.84.83s-14.66-5.37-14.66-5.37,0-5.65,1.22-7.76l2.32-.79C296.9,525.21,304.52,525.76,304.52,525.76Z" transform="translate(-19 -6.36)"/><path class="cls-29" d="M365.09,327.46c-.22-1.82-2.08-9.29,4.12-12.47s13.43-4.09,13.32-2.61-5.13,2.84-5.13,2.84,4.9-1.59,5.3-.14-7.06,3.32-7.06,3.32,6.15-.45,6.25.68-6.25,1.7-6.25,1.7a64,64,0,0,1-1.95,6.2s-.38-3-3.45-1.75S365.09,327.46,365.09,327.46Z" transform="translate(-19 -6.36)"/><path class="cls-32" d="M439.66,320.12c.42,0,6.49,0,9.68-1.94L453,311.8l-14-2.42s.27,1.77-1.07,6C436.71,319.17,439.66,320.12,439.66,320.12Z" transform="translate(-19 -6.36)"/><path class="cls-29" d="M454.08,312.47c1.87-1.42-5.68-6-6.47-4.27S452.82,313.42,454.08,312.47Z" transform="translate(-19 -6.36)"/><path class="cls-29" d="M445.56,309.48c-1.06,2,6.63,7.79,7.57,5.39S446.62,307.46,445.56,309.48Z" transform="translate(-19 -6.36)"/><path class="cls-29" d="M443.21,311.89c-.51,2,7,6.08,8.44,4.54S443.73,309.91,443.21,311.89Z" transform="translate(-19 -6.36)"/><path class="cls-29" d="M442.92,315.48c-1.15,3,7,4.6,7.37,2.09S443.54,313.86,442.92,315.48Z" transform="translate(-19 -6.36)"/><path class="cls-27" d="M441.79,320c-4.39,1.63-11.4,4.65-13.05,5.43-2.42,1.14-28.65,14.27-32.13.53-.8-3.19,2.24-5.33,4.43-7.39,4.12-3.89,28.7-7.83,37.95-9.19C440,313,440.32,316.59,441.79,320Z" transform="translate(-19 -6.36)"/><path class="cls-27" d="M332.29,353c-1.56.5-7.88-28.48-8.38-30.2-2.22-7.53-11.21-45.27,9-35.7a11.73,11.73,0,0,1,5.82,7c4.28,12.24,6.32,47.91,6.32,47.91Z" transform="translate(-19 -6.36)"/><path class="cls-27" d="M375.16,327c-3.64,3.72-9.21,10.1-10.49,11.67-1.88,2.3-21.8,28-32.64,15.53-2.51-2.89-.53-6.52.62-9.65,2.16-5.92,24.47-20.94,33.22-26.65A102.34,102.34,0,0,0,375.16,327Z" transform="translate(-19 -6.36)"/><path class="cls-7" d="M498.89,312.68H342.4c.17.49,0,1.09.21,1.66H499.22C499.31,313.81,498.79,313.21,498.89,312.68Z" transform="translate(-19 -6.36)"/><g class="cls-33"><g class="cls-34"><path class="cls-35" d="M533.18,227.59a10.11,10.11,0,0,1-5.28,2.34v1.53a1.94,1.94,0,0,1-.69,1.56,2.6,2.6,0,0,1-1.78.59,2.63,2.63,0,0,1-1.79-.59,1.94,1.94,0,0,1-.69-1.56v-1.4a17.3,17.3,0,0,1-6.71-2,2.21,2.21,0,0,1-.9-.78,2.15,2.15,0,0,1-.27-1.15,2.37,2.37,0,0,1,.62-1.63,1.93,1.93,0,0,1,1.47-.68,3.17,3.17,0,0,1,.85.12,7.54,7.54,0,0,1,1.09.47,14.16,14.16,0,0,0,2.9,1.06,12.48,12.48,0,0,0,2.86.31,6,6,0,0,0,2.85-.54,1.79,1.79,0,0,0,1-1.64,1.3,1.3,0,0,0-.59-1.08,4.69,4.69,0,0,0-1.44-.67c-.58-.16-1.42-.37-2.53-.62a37.38,37.38,0,0,1-4.35-1.2,7.54,7.54,0,0,1-2.93-1.9,4.83,4.83,0,0,1-1.24-3.48,5.75,5.75,0,0,1,2-4.34,10.24,10.24,0,0,1,5.23-2.43v-1.56a1.94,1.94,0,0,1,.71-1.54,2.58,2.58,0,0,1,1.76-.61,2.68,2.68,0,0,1,1.79.59,2,2,0,0,1,.69,1.56v1.47a16.22,16.22,0,0,1,5.72,2,2.36,2.36,0,0,1,.9.83,2.12,2.12,0,0,1,.27,1.11,2.29,2.29,0,0,1-.64,1.62,1.94,1.94,0,0,1-1.48.68,2.74,2.74,0,0,1-.81-.12,9.69,9.69,0,0,1-1.13-.47l-1.1-.51a10.27,10.27,0,0,0-1.82-.63,9.18,9.18,0,0,0-2.07-.23,4.83,4.83,0,0,0-2.58.61,1.84,1.84,0,0,0-1,1.63,1.61,1.61,0,0,0,1.13,1.5,19.24,19.24,0,0,0,3.57,1,33,33,0,0,1,4.3,1.12,7.21,7.21,0,0,1,2.9,1.91,5,5,0,0,1,1.21,3.52A5.58,5.58,0,0,1,533.18,227.59Z" transform="translate(-19 -6.36)"/></g><g class="cls-34"><path class="cls-35" d="M870.26,465.15a10.15,10.15,0,0,1-5.29,2.34V469a2,2,0,0,1-.69,1.56,2.65,2.65,0,0,1-1.78.59,2.68,2.68,0,0,1-1.79-.59A2,2,0,0,1,860,469v-1.41a17.3,17.3,0,0,1-6.72-2,2.35,2.35,0,0,1-.9-.78,2.19,2.19,0,0,1-.27-1.16,2.36,2.36,0,0,1,.62-1.62,1.91,1.91,0,0,1,1.47-.68,3.12,3.12,0,0,1,.85.12,6.22,6.22,0,0,1,1.09.47,14.38,14.38,0,0,0,2.9,1.06,12.54,12.54,0,0,0,2.86.31,5.87,5.87,0,0,0,2.85-.55,1.74,1.74,0,0,0,1-1.63,1.27,1.27,0,0,0-.58-1.08,4.75,4.75,0,0,0-1.45-.67c-.58-.17-1.42-.37-2.53-.62a39.24,39.24,0,0,1-4.34-1.2,7.49,7.49,0,0,1-2.94-1.91,4.83,4.83,0,0,1-1.23-3.47,5.73,5.73,0,0,1,2-4.34,10.12,10.12,0,0,1,5.23-2.43v-1.56a2,2,0,0,1,.71-1.55,2.64,2.64,0,0,1,1.77-.6,2.6,2.6,0,0,1,1.78.59,1.94,1.94,0,0,1,.69,1.56v1.46a16.29,16.29,0,0,1,5.73,2,2.44,2.44,0,0,1,.9.83,2.21,2.21,0,0,1,.26,1.1,2.29,2.29,0,0,1-.63,1.62,2,2,0,0,1-1.49.69,2.74,2.74,0,0,1-.81-.12,11.88,11.88,0,0,1-1.13-.47l-1.1-.52a10,10,0,0,0-1.82-.62,8.56,8.56,0,0,0-2.06-.23,4.93,4.93,0,0,0-2.58.6,1.87,1.87,0,0,0-1,1.64,1.59,1.59,0,0,0,1.13,1.5,19.57,19.57,0,0,0,3.57,1,31.69,31.69,0,0,1,4.29,1.12,7.12,7.12,0,0,1,2.9,1.9,5,5,0,0,1,1.22,3.53A5.61,5.61,0,0,1,870.26,465.15Z" transform="translate(-19 -6.36)"/></g><g class="cls-36"><path class="cls-37" d="M583.1,138.9a1.9,1.9,0,0,1,.68,1.47,2,2,0,0,1-.68,1.49,2.36,2.36,0,0,1-1.66.61h-5v4.38a1.91,1.91,0,0,1-.66,1.47,2.64,2.64,0,0,1-3.35,0,1.9,1.9,0,0,1-.68-1.47v-4.38h-5a2.36,2.36,0,0,1-1.66-.61,2,2,0,0,1-.68-1.49,1.9,1.9,0,0,1,.68-1.47,2.4,2.4,0,0,1,1.66-.6h5v-4.41a1.9,1.9,0,0,1,.68-1.47,2.61,2.61,0,0,1,3.33,0,1.9,1.9,0,0,1,.68,1.47v4.41h5A2.4,2.4,0,0,1,583.1,138.9Z" transform="translate(-19 -6.36)"/></g><g class="cls-36"><path class="cls-37" d="M851.82,369.45a1.87,1.87,0,0,1,.68,1.47,2,2,0,0,1-.68,1.49,2.41,2.41,0,0,1-1.66.61h-5v4.38a1.91,1.91,0,0,1-.66,1.47,2.67,2.67,0,0,1-3.35,0,1.9,1.9,0,0,1-.68-1.47V373h-5a2.44,2.44,0,0,1-1.67-.61,1.94,1.94,0,0,1-.67-1.49,1.86,1.86,0,0,1,.67-1.47,2.43,2.43,0,0,1,1.67-.6h5v-4.41a1.87,1.87,0,0,1,.68-1.47,2.4,2.4,0,0,1,1.66-.6,2.43,2.43,0,0,1,1.67.6,1.87,1.87,0,0,1,.68,1.47v4.41h5A2.4,2.4,0,0,1,851.82,369.45Z" transform="translate(-19 -6.36)"/></g><g class="cls-34"><path class="cls-35" d="M467.15,99.88a5.25,5.25,0,0,1-1.37-3.9,5.12,5.12,0,0,1,1.37-3.83,5.23,5.23,0,1,1,0,7.73ZM471.86,98a5.12,5.12,0,0,0,.28-2,4.66,4.66,0,0,0-.3-2A1,1,0,0,0,470,94a4.86,4.86,0,0,0-.29,2,5.08,5.08,0,0,0,.29,2,1,1,0,0,0,1.84,0Zm2.33,10.34a2,2,0,0,1-1,.27,1.69,1.69,0,0,1-1.15-.44,1.35,1.35,0,0,1-.49-1.06A2.12,2.12,0,0,1,472,106l9.4-14.32a2.45,2.45,0,0,1,.84-.8,2,2,0,0,1,1-.27,1.68,1.68,0,0,1,1.17.43,1.36,1.36,0,0,1,.48,1.07,2.06,2.06,0,0,1-.39,1.14L475,107.57A2.42,2.42,0,0,1,474.19,108.37Zm7.47-1.4a5.21,5.21,0,0,1-1.38-3.9,5.17,5.17,0,1,1,10.31,0,5.37,5.37,0,0,1-8.93,3.87Zm4.7-1.85a5.12,5.12,0,0,0,.28-2,4.83,4.83,0,0,0-.3-2,1,1,0,0,0-1.82,0,5,5,0,0,0-.29,2,5.08,5.08,0,0,0,.29,2,1,1,0,0,0,1.84,0Z" transform="translate(-19 -6.36)"/></g><g class="cls-36"><path class="cls-37" d="M225.41,503a5.28,5.28,0,0,1-1.37-3.9,5.12,5.12,0,0,1,1.37-3.83,5.22,5.22,0,1,1,0,7.73Zm4.7-1.86a4.84,4.84,0,0,0,.29-2,4.72,4.72,0,0,0-.3-2,1,1,0,0,0-.9-.59,1,1,0,0,0-.92.59,4.76,4.76,0,0,0-.29,2,4.84,4.84,0,0,0,.29,2,1,1,0,0,0,1.83,0Zm2.33,10.35a1.94,1.94,0,0,1-1,.26,1.68,1.68,0,0,1-1.15-.43,1.37,1.37,0,0,1-.49-1.07,2,2,0,0,1,.38-1.13l9.4-14.33a2.41,2.41,0,0,1,.84-.79,2,2,0,0,1,1-.27,1.71,1.71,0,0,1,1.17.42,1.37,1.37,0,0,1,.48,1.08,2.06,2.06,0,0,1-.39,1.14l-9.4,14.32A2.45,2.45,0,0,1,232.44,511.47Zm7.47-1.4a5.28,5.28,0,0,1-1.37-3.9,5.16,5.16,0,0,1,1.37-3.84,5.23,5.23,0,1,1,0,7.74Zm4.71-1.86a5.05,5.05,0,0,0,.28-2,4.75,4.75,0,0,0-.3-2,1,1,0,0,0-.9-.61,1,1,0,0,0-.92.6,4.94,4.94,0,0,0-.29,2,5,5,0,0,0,.29,2,1,1,0,0,0,1.84,0Z" transform="translate(-19 -6.36)"/></g><path class="cls-38" d="M584.5,317.7a3.6,3.6,0,0,0-2.35,1.92l-9.24-1.06a3.85,3.85,0,0,0-.23-1.14,4.6,4.6,0,0,0-1.41-2l4.86-6.68a6.35,6.35,0,0,0,4,.17c3-.84,4.68-3.68,3.73-6.34s-4.18-4.13-7.19-3.29S572,303,572.9,305.64a5,5,0,0,0,1.6,2.2l-4.86,6.68a5.85,5.85,0,0,0-3.57-.13c-2.77.78-4.3,3.39-3.42,5.84a5.43,5.43,0,0,0,6.61,3,5,5,0,0,0,3.41-3l9.23,1.06a3,3,0,0,0,.14.57,3.89,3.89,0,0,0,4.74,2.17,3.27,3.27,0,0,0,2.46-4.18A3.88,3.88,0,0,0,584.5,317.7Z" transform="translate(-19 -6.36)"/><path class="cls-39" d="M281,447.09a4.2,4.2,0,0,0-3.17.39l-6.92-5.5a4.34,4.34,0,0,0,.54-1.05,4.09,4.09,0,0,0,.12-2.34l8.29-3.06a5.67,5.67,0,0,0,3.16,2.13,5.89,5.89,0,0,0,7.15-3.35c.92-2.67-.78-5.5-3.8-6.31s-6.23.68-7.15,3.35a4.4,4.4,0,0,0-.1,2.61l-8.3,3.06a5.18,5.18,0,0,0-2.86-1.9,5.41,5.41,0,0,0-6.57,3.08c-.85,2.46.71,5.06,3.49,5.81a5.85,5.85,0,0,0,4.74-.76l6.92,5.5a3.47,3.47,0,0,0-.26.55,3.28,3.28,0,0,0,2.51,4.16,3.88,3.88,0,0,0,4.71-2.21A3.28,3.28,0,0,0,281,447.09Z" transform="translate(-19 -6.36)"/><g class="cls-34"><path class="cls-35" d="M810.33,316.58a1.9,1.9,0,0,1-.69-1.49,2,2,0,0,1,.69-1.51A2.4,2.4,0,0,1,812,313h14.86a2.44,2.44,0,0,1,1.69.61,1.91,1.91,0,0,1,.68,1.49,2,2,0,0,1-.68,1.5,2.4,2.4,0,0,1-1.69.62H812A2.44,2.44,0,0,1,810.33,316.58Zm0,7.09a1.9,1.9,0,0,1-.69-1.49,2,2,0,0,1,.69-1.51,2.4,2.4,0,0,1,1.68-.62h14.86a2.44,2.44,0,0,1,1.69.61,1.9,1.9,0,0,1,.68,1.48,2,2,0,0,1-.68,1.51,2.45,2.45,0,0,1-1.69.62H812A2.44,2.44,0,0,1,810.33,323.67Z" transform="translate(-19 -6.36)"/></g><g class="cls-36"><path class="cls-37" d="M377.91,184.23a1.94,1.94,0,0,1-.68-1.49,2,2,0,0,1,.68-1.51,2.45,2.45,0,0,1,1.69-.62h14.86a2.44,2.44,0,0,1,1.68.6,1.9,1.9,0,0,1,.69,1.49,2,2,0,0,1-.69,1.51,2.4,2.4,0,0,1-1.68.62H379.6A2.48,2.48,0,0,1,377.91,184.23Zm0,7.08a1.9,1.9,0,0,1-.68-1.48,2,2,0,0,1,.68-1.51,2.45,2.45,0,0,1,1.69-.62h14.86a2.44,2.44,0,0,1,1.68.6,1.9,1.9,0,0,1,.69,1.49,2,2,0,0,1-.69,1.51,2.4,2.4,0,0,1-1.68.62H379.6A2.44,2.44,0,0,1,377.91,191.31Z" transform="translate(-19 -6.36)"/></g><path class="cls-39" d="M709.37,270.29l-1.82-3.82a1.35,1.35,0,0,0-1.68-.61l-4.33,1.61a5.26,5.26,0,0,0-6.54-2.35,4.24,4.24,0,0,0-2.66,5.77L688,272.5a1.1,1.1,0,0,0-.69,1.49l7.52,15.76a1.34,1.34,0,0,0,1.68.6l4.33-1.61a4.24,4.24,0,0,1,2.67-5.77,5.25,5.25,0,0,1,6.53,2.35l4.33-1.61a1.09,1.09,0,0,0,.69-1.48l-1.83-3.82a4.24,4.24,0,0,0,2.67-5.77A5.26,5.26,0,0,0,709.37,270.29Z" transform="translate(-19 -6.36)"/><path class="cls-38" d="M262.51,363.6l-1.83-3.83a1.36,1.36,0,0,0-1.68-.6l-4.33,1.61a5.26,5.26,0,0,0-6.54-2.35,4.24,4.24,0,0,0-2.66,5.77l-4.33,1.61a1.08,1.08,0,0,0-.68,1.48L248,383.06a1.36,1.36,0,0,0,1.68.6l4.33-1.61a4.24,4.24,0,0,1,2.66-5.77,5.26,5.26,0,0,1,6.54,2.35l4.33-1.61a1.08,1.08,0,0,0,.68-1.48l-1.82-3.82A4.24,4.24,0,0,0,269,366,5.23,5.23,0,0,0,262.51,363.6Z" transform="translate(-19 -6.36)"/><g class="cls-34"><path class="cls-35" d="M346.57,280.84a2.42,2.42,0,0,0-2.93,1.39,2,2,0,0,0,1.57,2.58,2.41,2.41,0,0,0,2.93-1.39A2,2,0,0,0,346.57,280.84Z" transform="translate(-19 -6.36)"/><path class="cls-35" d="M365.68,280.75l-35-9.28a1.06,1.06,0,0,0-1.29.61l-4,11.69a.91.91,0,0,0,.69,1.14l35,9.27a1.05,1.05,0,0,0,1.29-.61l4-11.69A.9.9,0,0,0,365.68,280.75Zm-4.25,9.9a.53.53,0,0,1-.64.3,1.06,1.06,0,0,0-1.28.61.53.53,0,0,1-.65.3l-29.44-7.8a.44.44,0,0,1-.34-.57.9.9,0,0,0-.69-1.13.45.45,0,0,1-.35-.57l2.31-6.78a.53.53,0,0,1,.64-.31,1.06,1.06,0,0,0,1.29-.61.52.52,0,0,1,.64-.3l29.44,7.8a.44.44,0,0,1,.34.57.9.9,0,0,0,.69,1.13.45.45,0,0,1,.35.57Z" transform="translate(-19 -6.36)"/><path class="cls-35" d="M361.63,282.35l-28.58-7.58a2.16,2.16,0,0,1-1.84.88l-2,6a1.76,1.76,0,0,1,1,1.62l28.58,7.58a2.18,2.18,0,0,1,1.84-.88l2.05-6A1.81,1.81,0,0,1,361.63,282.35Zm-21.1-.47L332,279.62a.45.45,0,0,1-.35-.57.53.53,0,0,1,.64-.3l8.53,2.26a.44.44,0,0,1,.34.57A.53.53,0,0,1,340.53,281.88Zm4.39,3.8a2.94,2.94,0,0,1-2.27-3.71,3.48,3.48,0,0,1,4.21-2,2.94,2.94,0,0,1,2.27,3.71A3.47,3.47,0,0,1,344.92,285.68Zm14.56,1.22L351,284.64a.44.44,0,0,1-.34-.56.53.53,0,0,1,.64-.31l8.52,2.26a.45.45,0,0,1,.35.57A.53.53,0,0,1,359.48,286.9Z" transform="translate(-19 -6.36)"/></g></g><path class="cls-40" d="M321.72,313.51c-7.74.58-18,2.72-25.34,10.27-11.69,12-11.75,31.19-18.07,45.93-8.37,19.5-19.52,37.8-30.05,56.21-8.48,14.82-19.13,38.84-34.91,47.48" transform="translate(-19 -6.36)"/></svg>