<svg width="24" height="24" viewBox="0 0 24 24" fill="none" xmlns="http://www.w3.org/2000/svg">
<path d="M17.6991 12.3934C17.6728 9.79668 19.8556 8.55122 19.9532 8.48831C18.7264 6.72699 16.8152 6.48532 16.135 6.45782C14.5098 6.29573 12.9622 7.39785 12.1378 7.39785C11.315 7.39785 10.0411 6.48157 8.69343 6.5049C6.92056 6.53074 5.28645 7.51744 4.37413 9.07583C2.53294 12.2122 3.90312 16.8603 5.6972 19.4058C6.5743 20.65 7.62029 22.05 8.99259 21.9988C10.3152 21.9475 10.8143 21.1587 12.4131 21.1587C14.012 21.1587 14.461 21.9988 15.86 21.9725C17.2824 21.9471 18.1841 20.7046 19.054 19.4554C20.0609 18.0099 20.4755 16.6103 20.5001 16.5394C20.4691 16.5253 17.7275 15.494 17.6991 12.3934Z" fill="#000"/>
<path d="M15.0704 4.77321C15.7981 3.90568 16.2912 2.70023 16.1571 1.50018C15.1069 1.54185 13.8355 2.18562 13.0815 3.05232C12.406 3.82151 11.8153 5.04614 11.9736 6.22452C13.1452 6.31368 14.3401 5.63908 15.0704 4.77321Z" fill="#000"/>
</svg>
