<svg width="24" height="24" viewBox="0 0 24 24" fill="none" xmlns="http://www.w3.org/2000/svg">
<path d="M9.74391 5.04004C7.96791 5.66404 6.43191 7.00804 5.56791 8.68804C5.27991 9.26404 5.03991 9.88804 4.94391 10.56C4.60791 12.144 4.84791 13.872 5.56791 15.312C6.04791 16.272 6.71991 17.088 7.58391 17.76C8.35191 18.384 9.26391 18.864 10.2719 19.104C11.5199 19.44 12.8159 19.44 14.0159 19.152C15.1199 18.912 16.1759 18.384 17.0399 17.568C17.9519 16.752 18.5759 15.696 18.9119 14.496C19.2959 13.248 19.3439 11.904 19.1039 10.608C16.7999 10.608 14.4959 10.608 12.1919 10.608C12.1919 11.568 12.1919 12.528 12.1919 13.488C13.5359 13.488 14.8799 13.488 16.1759 13.488C16.0319 14.4 15.4559 15.264 14.6879 15.744C14.2079 16.08 13.6319 16.272 13.0559 16.368C12.4799 16.464 11.8559 16.464 11.2799 16.368C10.7039 16.272 10.1279 15.984 9.64791 15.648C8.87991 15.12 8.25591 14.304 7.96791 13.392C7.63191 12.48 7.63191 11.472 7.96791 10.512C8.20791 9.88804 8.54391 9.26404 9.02391 8.78404C9.59991 8.16004 10.3679 7.72804 11.2319 7.58404C11.9519 7.44004 12.6719 7.44004 13.3919 7.68004C13.9679 7.87204 14.5439 8.20804 14.9759 8.59204C15.4079 8.16004 15.8879 7.68004 16.3199 7.24804C16.5599 7.00804 16.7999 6.76804 17.0399 6.52804C16.3679 5.90404 15.5519 5.37604 14.6879 5.04004C13.1039 4.51204 11.3279 4.51204 9.74391 5.04004Z" fill="#000"/>
<path d="M9.74399 5.03998C11.328 4.51198 13.104 4.51198 14.688 5.08798C15.552 5.42398 16.368 5.90398 17.04 6.57598C16.8 6.81598 16.56 7.05598 16.32 7.29598C15.888 7.72798 15.408 8.20798 14.976 8.63998C14.544 8.20798 13.968 7.87198 13.392 7.72798C12.72 7.53598 11.952 7.48798 11.232 7.63198C10.416 7.82398 9.64799 8.25598 9.02399 8.83197C8.54399 9.31198 8.15999 9.93598 7.96799 10.56C7.15199 9.93598 6.38399 9.31198 5.56799 8.68798C6.43199 7.00798 7.96799 5.66398 9.74399 5.03998Z" fill="#000"/>
<path d="M4.94391 10.5601C5.08791 9.93614 5.27991 9.31214 5.56791 8.68814C6.38391 9.31214 7.15191 9.93614 7.96791 10.5601C7.63191 11.4721 7.63191 12.4801 7.96791 13.4401C7.15191 14.0641 6.38391 14.6881 5.56791 15.3121C4.84791 13.8241 4.60791 12.1441 4.94391 10.5601Z" fill="#000"/>
<path d="M12.1438 10.6082C14.4478 10.6082 16.7518 10.6082 19.0558 10.6082C19.2958 11.9042 19.2478 13.2482 18.8638 14.4962C18.5278 15.6482 17.9038 16.7042 16.9918 17.5682C16.2238 16.9442 15.4558 16.3682 14.6398 15.7442C15.4078 15.2162 15.9358 14.4002 16.1278 13.4882C14.7838 13.4882 13.4398 13.4882 12.1438 13.4882C12.1438 12.5282 12.1438 11.5682 12.1438 10.6082Z" fill="#000"/>
<path d="M5.56799 15.3119C6.38399 14.6879 7.15199 14.0639 7.96799 13.4399C8.25599 14.3519 8.87999 15.1679 9.64799 15.6959C10.128 16.0319 10.704 16.2719 11.28 16.4159C11.856 16.5119 12.432 16.5119 13.056 16.4159C13.632 16.3199 14.208 16.0799 14.688 15.7919C15.456 16.4159 16.224 16.9919 17.04 17.6159C16.176 18.3839 15.168 18.9119 14.016 19.1999C12.768 19.4879 11.472 19.4879 10.272 19.1519C9.31199 18.9119 8.39999 18.4319 7.58399 17.8079C6.76799 17.0879 6.04799 16.2239 5.56799 15.3119Z" fill="#000"/>
</svg>
